<svg width="662" height="462" viewBox="0 0 662 462" fill="none" xmlns="http://www.w3.org/2000/svg">
<g filter="url(#filter0_ddd)">
<rect x="47" y="20.0566" width="558.617" height="303" rx="12" fill="#F9F9F9"/>
</g>
<mask id="mask0" style="mask-type:alpha" maskUnits="userSpaceOnUse" x="54" y="27" width="545" height="289">
<rect x="54.4814" y="27.5381" width="543.654" height="288.037" rx="8" fill="#EEEEEE"/>
</mask>
<g mask="url(#mask0)">
<rect x="54.4814" y="27.5381" width="543.654" height="288.037" rx="8" fill="white"/>
<g opacity="0.6" filter="url(#filter1_f)">
<circle r="137" transform="matrix(-1 0 0 1 86.9999 35.0001)" fill="#4E15C5" fill-opacity="0.7"/>
</g>
<g opacity="0.6" filter="url(#filter2_f)">
<circle cx="538" cy="253" r="88" fill="#FFC107"/>
</g>
<path d="M219.3 138.214C219.3 146.527 216.324 154.566 210.91 160.875C205.497 167.184 198.003 171.346 189.787 172.609L188.681 165.415C195.179 164.417 201.106 161.125 205.387 156.135C209.668 151.146 212.022 144.789 212.022 138.214H219.3Z" fill="url(#paint0_radial)"/>
<path d="M150.137 133.414C151.306 125.12 155.428 117.526 161.746 112.026C168.063 106.527 176.152 103.49 184.529 103.474L184.542 110.752C177.918 110.765 171.521 113.166 166.524 117.516C161.528 121.865 158.268 127.871 157.343 134.43L150.137 133.414Z" fill="url(#paint1_radial)"/>
<path d="M184.502 173.013C179.932 173.013 175.407 172.113 171.185 170.365C166.963 168.616 163.127 166.053 159.895 162.821C156.664 159.59 154.101 155.754 152.352 151.532C150.603 147.31 149.703 142.785 149.703 138.215L156.981 138.215C156.981 141.829 157.693 145.408 159.076 148.747C160.459 152.086 162.486 155.119 165.042 157.675C167.597 160.23 170.631 162.257 173.97 163.64C177.309 165.023 180.888 165.735 184.502 165.735L184.502 173.013Z" fill="#FAB400"/>
<path d="M184.502 103.416C189.072 103.416 193.597 104.316 197.819 106.065C202.041 107.813 205.877 110.377 209.108 113.608C212.339 116.839 214.903 120.675 216.651 124.897C218.4 129.119 219.3 133.644 219.3 138.214L184.502 138.214L184.502 103.416Z" fill="#7B68EE"/>
<rect x="169.725" y="92.9292" width="29.078" height="6.19696" rx="3.09848" fill="#7B68EE"/>
<rect x="215.8" y="103.114" width="17.2065" height="6.19696" rx="3.09848" transform="rotate(51.6729 215.8 103.114)" fill="#7B68EE"/>
<path d="M252.868 151.686C257.081 151.686 259.809 149.848 261.201 147.194H261.424V151.147H268.922V131.919C268.922 125.127 263.168 122.268 256.821 122.268C249.991 122.268 245.499 125.535 244.404 130.732L251.717 131.326C252.255 129.432 253.944 128.041 256.784 128.041C259.475 128.041 261.015 129.395 261.015 131.734V131.845C261.015 133.683 259.067 133.924 254.111 134.406C248.469 134.926 243.402 136.819 243.402 143.185C243.402 148.827 247.43 151.686 252.868 151.686ZM255.132 146.229C252.701 146.229 250.956 145.097 250.956 142.925C250.956 140.698 252.793 139.603 255.577 139.213C257.303 138.972 260.124 138.564 261.071 137.933V140.958C261.071 143.946 258.603 146.229 255.132 146.229Z" fill="#7B68EE"/>
<path d="M285.673 151.704C293.264 151.704 298.034 147.25 298.405 140.698H290.944C290.48 143.742 288.476 145.45 285.766 145.45C282.073 145.45 279.678 142.35 279.678 136.893C279.678 131.511 282.091 128.43 285.766 128.43C288.661 128.43 290.517 130.342 290.944 133.182H298.405C298.071 126.593 293.079 122.268 285.636 122.268C276.987 122.268 271.642 128.263 271.642 137.005C271.642 145.672 276.894 151.704 285.673 151.704Z" fill="#7B68EE"/>
<path d="M314.085 151.704C321.676 151.704 326.446 147.25 326.817 140.698H319.356C318.892 143.742 316.887 145.45 314.178 145.45C310.484 145.45 308.09 142.35 308.09 136.893C308.09 131.511 310.503 128.43 314.178 128.43C317.073 128.43 318.929 130.342 319.356 133.182H326.817C326.483 126.593 321.49 122.268 314.048 122.268C305.399 122.268 300.054 128.263 300.054 137.005C300.054 145.672 305.306 151.704 314.085 151.704Z" fill="#7B68EE"/>
<path d="M347.897 139.009C347.916 142.833 345.299 144.837 342.459 144.837C339.471 144.837 337.541 142.74 337.522 139.38V122.64H329.616V140.791C329.635 147.454 333.532 151.519 339.267 151.519C343.554 151.519 346.635 149.31 347.916 145.969H348.213V151.147H355.804V122.64H347.897V139.009Z" fill="#7B68EE"/>
<path d="M378.113 122.639H372.75V115.809H364.843V122.639H360.946V128.579H364.843V143.426C364.806 149.013 368.611 151.778 374.346 151.537C376.387 151.463 377.835 151.054 378.633 150.795L377.39 144.911C377 144.985 376.165 145.171 375.422 145.171C373.845 145.171 372.75 144.577 372.75 142.387V128.579H378.113V122.639Z" fill="#FAB400"/>
<path d="M381.001 151.147H388.907V135.019C388.907 131.511 391.468 129.098 394.958 129.098C396.053 129.098 397.556 129.284 398.298 129.525V122.509C397.593 122.342 396.61 122.231 395.811 122.231C392.619 122.231 390.002 124.087 388.963 127.613H388.666V122.639H381.001V151.147Z" fill="#FAB400"/>
<path d="M407.436 151.685C411.649 151.685 414.377 149.848 415.769 147.194H415.992V151.147H423.49V131.919C423.49 125.126 417.736 122.268 411.389 122.268C404.559 122.268 400.068 125.535 398.973 130.731L406.285 131.325C406.823 129.432 408.512 128.04 411.352 128.04C414.043 128.04 415.584 129.395 415.584 131.734V131.845C415.584 133.682 413.635 133.924 408.679 134.406C403.037 134.926 397.97 136.819 397.97 143.185C397.97 148.827 401.998 151.685 407.436 151.685ZM409.7 146.229C407.269 146.229 405.524 145.097 405.524 142.925C405.524 140.698 407.362 139.603 410.146 139.213C411.872 138.972 414.693 138.564 415.639 137.933V140.958C415.639 143.946 413.171 146.229 409.7 146.229Z" fill="#FAB400"/>
<path d="M440.241 151.704C447.832 151.704 452.602 147.25 452.973 140.698H445.512C445.048 143.742 443.044 145.449 440.334 145.449C436.641 145.449 434.247 142.35 434.247 136.893C434.247 131.511 436.659 128.43 440.334 128.43C443.23 128.43 445.086 130.342 445.512 133.181H452.973C452.639 126.593 447.647 122.268 440.204 122.268C431.556 122.268 426.21 128.263 426.21 137.005C426.21 145.672 431.463 151.704 440.241 151.704Z" fill="#FAB400"/>
<path d="M455.773 151.147H463.679V142.09L465.813 139.659L473.59 151.147H482.851L471.734 134.982L482.313 122.639H473.237L464.106 133.46H463.679V113.137H455.773V151.147Z" fill="#FAB400"/>
<path d="M483.929 151.147H491.836V135.019C491.836 131.511 494.397 129.098 497.886 129.098C498.981 129.098 500.484 129.284 501.227 129.525V122.509C500.521 122.342 499.538 122.231 498.74 122.231C495.547 122.231 492.931 124.087 491.891 127.613H491.594V122.639H483.929V151.147Z" fill="#FAB400"/>
</g>
<g filter="url(#filter3_ddd)">
<path d="M40.0002 174.648C40.0066 170.67 41.9413 166.853 45.1593 164.508C47.3762 162.892 50.0272 162.102 52.7581 162.097C53.7591 162.096 54.7601 162.097 55.7604 162.097C57.865 162.097 59.9702 162.097 62.0748 162.097C65.1726 162.097 68.271 162.097 71.3688 162.097C75.3481 162.097 79.3268 162.097 83.3061 162.097C88.0538 162.097 92.8015 162.097 97.5493 162.097C102.954 162.097 108.358 162.097 113.762 162.097C119.711 162.097 125.66 162.097 131.608 162.097C137.989 162.097 144.37 162.097 150.751 162.097C157.473 162.097 164.195 162.097 170.917 162.097C177.826 162.097 184.735 162.097 191.645 162.097C198.671 162.097 205.697 162.097 212.723 162.097C219.711 162.097 226.698 162.097 233.686 162.097C240.544 162.097 247.402 162.097 254.26 162.097C260.877 162.097 267.494 162.097 274.11 162.097C280.373 162.097 286.636 162.097 292.898 162.097C298.696 162.097 304.492 162.097 310.289 162.097C315.508 162.097 320.727 162.097 325.946 162.097C330.474 162.097 335.003 162.097 339.531 162.097C343.267 162.097 347.003 162.097 350.739 162.097C353.547 162.097 356.355 162.097 359.164 162.097C360.949 162.097 362.734 162.097 364.518 162.097C365.157 162.097 365.795 162.093 366.433 162.097C370.307 162.126 374.014 163.915 376.385 166.993C378.139 169.272 378.987 172.035 378.99 174.893C378.992 176.277 378.99 177.661 378.99 179.044C378.99 181.952 378.99 184.86 378.99 187.768C378.99 191.96 378.99 196.151 378.99 200.343C378.99 205.577 378.99 210.812 378.99 216.046C378.99 222.102 378.99 228.159 378.99 234.215C378.99 240.815 378.99 247.415 378.99 254.015C378.99 260.957 378.99 267.898 378.99 274.84C378.99 281.84 378.99 288.84 378.99 295.84C378.99 302.678 378.99 309.516 378.99 316.354C378.99 322.79 378.99 329.226 378.99 335.662C378.99 341.455 378.99 347.248 378.99 353.041C378.99 357.951 378.99 362.86 378.99 367.77C378.99 371.555 378.99 375.34 378.99 379.126C378.99 381.546 378.99 383.966 378.99 386.387C378.99 387.356 379.017 388.329 378.982 389.297C378.837 393.26 376.762 397.001 373.477 399.225C371.31 400.693 368.785 401.383 366.182 401.386C365.14 401.388 364.097 401.386 363.055 401.386C360.912 401.386 358.768 401.386 356.625 401.386C353.492 401.386 350.36 401.386 347.228 401.386C343.219 401.386 339.209 401.386 335.2 401.386C330.426 401.386 325.652 401.386 320.878 401.386C315.452 401.386 310.025 401.386 304.599 401.386C298.632 401.386 292.665 401.386 286.699 401.386C280.284 401.386 273.869 401.386 267.454 401.386C260.743 401.386 254.031 401.386 247.32 401.386C240.384 401.386 233.447 401.386 226.511 401.386C219.505 401.386 212.499 401.386 205.493 401.386C198.508 401.386 191.524 401.386 184.539 401.386C177.688 401.386 170.836 401.386 163.985 401.386C157.379 401.386 150.774 401.386 144.168 401.386C137.92 401.386 131.673 401.386 125.425 401.386C119.647 401.386 113.87 401.386 108.092 401.386C102.897 401.386 97.7017 401.386 92.5065 401.386C87.9931 401.386 83.4791 401.386 78.9657 401.386C75.2739 401.386 71.5826 401.386 67.8906 401.386C65.1112 401.386 62.3318 401.386 59.5524 401.386C57.8146 401.386 56.0768 401.386 54.339 401.386C53.6919 401.386 53.0436 401.395 52.3965 401.385C48.4347 401.326 44.6569 399.365 42.3476 396.143C40.7441 393.904 40.0008 391.262 40.0002 388.527C39.9995 387.083 40.0002 385.639 40.0002 384.195C40.0002 381.235 40.0002 378.276 40.0002 375.317C40.0002 371.083 40.0002 366.849 40.0002 362.615C40.0002 357.329 40.0002 352.043 40.0002 346.757C40.0002 340.693 40.0002 334.629 40.0002 328.566C40.0002 321.929 40.0002 315.293 40.0002 308.656C40.0002 301.727 40.0002 294.8 40.0002 287.872C40.0002 280.874 40.0002 273.875 40.0002 266.877C40.0002 260.05 40.0002 253.222 40.0002 246.394C40.0002 239.978 40.0002 233.562 40.0002 227.145C40.0002 221.38 40.0002 215.615 40.0002 209.851C40.0002 204.978 40.0002 200.106 40.0002 195.234C40.0002 191.495 40.0002 187.755 40.0002 184.016C40.0002 181.645 40.0002 179.275 40.0002 176.905C40.0002 176.151 40.0002 175.399 40.0002 174.648Z" fill="#F9F9F9"/>
<mask id="mask1" style="mask-type:alpha" maskUnits="userSpaceOnUse" x="68" y="177" width="282" height="210">
<path d="M68.9265 178.842C68.9336 177.528 70.0651 177.053 71.1792 177.053C72.2228 177.053 73.2658 177.053 74.3094 177.053C76.2636 177.053 78.2172 177.053 80.1714 177.053C82.9437 177.053 85.7166 177.053 88.4889 177.053C91.9882 177.053 95.4881 177.053 98.9874 177.053C103.122 177.053 107.257 177.053 111.392 177.053C116.07 177.053 120.748 177.053 125.426 177.053C130.555 177.053 135.685 177.053 140.815 177.053C146.304 177.053 151.794 177.053 157.284 177.053C163.042 177.053 168.799 177.053 174.557 177.053C180.491 177.053 186.424 177.053 192.359 177.053C198.377 177.053 204.396 177.053 210.414 177.053C216.425 177.053 222.437 177.053 228.448 177.053C234.361 177.053 240.273 177.053 246.185 177.053C251.907 177.053 257.628 177.053 263.35 177.053C268.789 177.053 274.229 177.053 279.667 177.053C284.732 177.053 289.797 177.053 294.862 177.053C299.46 177.053 304.06 177.053 308.658 177.053C312.699 177.053 316.74 177.053 320.781 177.053C324.173 177.053 327.564 177.053 330.955 177.053C333.605 177.053 336.256 177.053 338.905 177.053C340.722 177.053 342.539 177.053 344.356 177.053C345.248 177.053 346.14 177.05 347.032 177.053C348.146 177.056 349.022 177.722 349.059 178.893C349.087 179.778 349.059 180.667 349.059 181.551C349.059 183.65 349.059 185.749 349.059 187.848C349.059 190.996 349.059 194.145 349.059 197.293C349.059 201.327 349.059 205.361 349.059 209.396C349.059 214.152 349.059 218.908 349.059 223.664C349.059 228.977 349.059 234.29 349.059 239.604C349.059 245.311 349.059 251.018 349.059 256.725C349.059 262.662 349.059 268.599 349.059 274.536C349.059 280.538 349.059 286.54 349.059 292.542C349.059 298.447 349.059 304.35 349.059 310.254C349.059 315.896 349.059 321.537 349.059 327.179C349.059 332.394 349.059 337.609 349.059 342.824C349.059 347.449 349.059 352.073 349.059 356.698C349.059 360.568 349.059 364.438 349.059 368.308C349.059 371.26 349.059 374.212 349.059 377.163C349.059 379.032 349.059 380.902 349.059 382.771C349.059 383.454 349.134 384.183 349.045 384.864C348.884 386.11 347.796 386.431 346.738 386.431C345.657 386.431 344.576 386.431 343.495 386.431C341.507 386.431 339.52 386.431 337.532 386.431C334.729 386.431 331.926 386.431 329.123 386.431C325.597 386.431 322.071 386.431 318.545 386.431C314.387 386.431 310.229 386.431 306.071 386.431C301.374 386.431 296.676 386.431 291.978 386.431C286.833 386.431 281.687 386.431 276.541 386.431C271.04 386.431 265.538 386.431 260.036 386.431C254.269 386.431 248.503 386.431 242.737 386.431C236.798 386.431 230.859 386.431 224.92 386.431C218.9 386.431 212.88 386.431 206.86 386.431C200.851 386.431 194.842 386.431 188.832 386.431C182.926 386.431 177.019 386.431 171.112 386.431C165.4 386.431 159.688 386.431 153.976 386.431C148.549 386.431 143.124 386.431 137.697 386.431C132.649 386.431 127.601 386.431 122.553 386.431C117.974 386.431 113.396 386.431 108.816 386.431C104.8 386.431 100.782 386.431 96.765 386.431C93.4008 386.431 90.0372 386.431 86.673 386.431C84.0539 386.431 81.4347 386.431 78.8162 386.431C77.0339 386.431 75.2516 386.431 73.4694 386.431C72.6157 386.431 71.7614 386.438 70.9077 386.431C69.7878 386.421 68.9542 385.714 68.9251 384.561C68.9019 383.632 68.9251 382.698 68.9251 381.768C68.9251 379.628 68.9251 377.49 68.9251 375.35C68.9251 372.168 68.9251 368.984 68.9251 365.802C68.9251 361.739 68.9251 357.676 68.9251 353.613C68.9251 348.835 68.9251 344.057 68.9251 339.278C68.9251 333.948 68.9251 328.617 68.9251 323.287C68.9251 317.569 68.9251 311.851 68.9251 306.133C68.9251 300.191 68.9251 294.249 68.9251 288.307C68.9251 282.284 68.9251 276.261 68.9251 270.238C68.9251 264.342 68.9251 258.445 68.9251 252.548C68.9251 246.92 68.9251 241.292 68.9251 235.664C68.9251 230.469 68.9251 225.275 68.9251 220.08C68.9251 215.482 68.9251 210.883 68.9251 206.285C68.9251 202.448 68.9251 198.611 68.9251 194.774C68.9251 191.862 68.9251 188.949 68.9251 186.037C68.9251 184.214 68.9251 182.391 68.9251 180.567C68.9265 179.991 68.9265 179.416 68.9265 178.842Z" fill="#EEEEEE"/>
</mask>
<g mask="url(#mask1)">
<path d="M68.9265 178.842C68.9336 177.528 70.0651 177.053 71.1792 177.053C72.2228 177.053 73.2658 177.053 74.3094 177.053C76.2636 177.053 78.2172 177.053 80.1714 177.053C82.9437 177.053 85.7166 177.053 88.4889 177.053C91.9882 177.053 95.4881 177.053 98.9874 177.053C103.122 177.053 107.257 177.053 111.392 177.053C116.07 177.053 120.748 177.053 125.426 177.053C130.555 177.053 135.685 177.053 140.815 177.053C146.304 177.053 151.794 177.053 157.284 177.053C163.042 177.053 168.799 177.053 174.557 177.053C180.491 177.053 186.424 177.053 192.359 177.053C198.377 177.053 204.396 177.053 210.414 177.053C216.425 177.053 222.437 177.053 228.448 177.053C234.361 177.053 240.273 177.053 246.185 177.053C251.907 177.053 257.628 177.053 263.35 177.053C268.789 177.053 274.229 177.053 279.667 177.053C284.732 177.053 289.797 177.053 294.862 177.053C299.46 177.053 304.06 177.053 308.658 177.053C312.699 177.053 316.74 177.053 320.781 177.053C324.173 177.053 327.564 177.053 330.955 177.053C333.605 177.053 336.256 177.053 338.905 177.053C340.722 177.053 342.539 177.053 344.356 177.053C345.248 177.053 346.14 177.05 347.032 177.053C348.146 177.056 349.022 177.722 349.059 178.893C349.087 179.778 349.059 180.667 349.059 181.551C349.059 183.65 349.059 185.749 349.059 187.848C349.059 190.996 349.059 194.145 349.059 197.293C349.059 201.327 349.059 205.361 349.059 209.396C349.059 214.152 349.059 218.908 349.059 223.664C349.059 228.977 349.059 234.29 349.059 239.604C349.059 245.311 349.059 251.018 349.059 256.725C349.059 262.662 349.059 268.599 349.059 274.536C349.059 280.538 349.059 286.54 349.059 292.542C349.059 298.447 349.059 304.35 349.059 310.254C349.059 315.896 349.059 321.537 349.059 327.179C349.059 332.394 349.059 337.609 349.059 342.824C349.059 347.449 349.059 352.073 349.059 356.698C349.059 360.568 349.059 364.438 349.059 368.308C349.059 371.26 349.059 374.212 349.059 377.163C349.059 379.032 349.059 380.902 349.059 382.771C349.059 383.454 349.134 384.183 349.045 384.864C348.884 386.11 347.796 386.431 346.738 386.431C345.657 386.431 344.576 386.431 343.495 386.431C341.507 386.431 339.52 386.431 337.532 386.431C334.729 386.431 331.926 386.431 329.123 386.431C325.597 386.431 322.071 386.431 318.545 386.431C314.387 386.431 310.229 386.431 306.071 386.431C301.374 386.431 296.676 386.431 291.978 386.431C286.833 386.431 281.687 386.431 276.541 386.431C271.04 386.431 265.538 386.431 260.036 386.431C254.269 386.431 248.503 386.431 242.737 386.431C236.798 386.431 230.859 386.431 224.92 386.431C218.9 386.431 212.88 386.431 206.86 386.431C200.851 386.431 194.842 386.431 188.832 386.431C182.926 386.431 177.019 386.431 171.112 386.431C165.4 386.431 159.688 386.431 153.976 386.431C148.549 386.431 143.124 386.431 137.697 386.431C132.649 386.431 127.601 386.431 122.553 386.431C117.974 386.431 113.396 386.431 108.816 386.431C104.8 386.431 100.782 386.431 96.765 386.431C93.4008 386.431 90.0372 386.431 86.673 386.431C84.0539 386.431 81.4347 386.431 78.8162 386.431C77.0339 386.431 75.2516 386.431 73.4694 386.431C72.6157 386.431 71.7614 386.438 70.9077 386.431C69.7878 386.421 68.9542 385.714 68.9251 384.561C68.9019 383.632 68.9251 382.698 68.9251 381.768C68.9251 379.628 68.9251 377.49 68.9251 375.35C68.9251 372.168 68.9251 368.984 68.9251 365.802C68.9251 361.739 68.9251 357.676 68.9251 353.613C68.9251 348.835 68.9251 344.057 68.9251 339.278C68.9251 333.948 68.9251 328.617 68.9251 323.287C68.9251 317.569 68.9251 311.851 68.9251 306.133C68.9251 300.191 68.9251 294.249 68.9251 288.307C68.9251 282.284 68.9251 276.261 68.9251 270.238C68.9251 264.342 68.9251 258.445 68.9251 252.548C68.9251 246.92 68.9251 241.292 68.9251 235.664C68.9251 230.469 68.9251 225.275 68.9251 220.08C68.9251 215.482 68.9251 210.883 68.9251 206.285C68.9251 202.448 68.9251 198.611 68.9251 194.774C68.9251 191.862 68.9251 188.949 68.9251 186.037C68.9251 184.214 68.9251 182.391 68.9251 180.567C68.9265 179.991 68.9265 179.416 68.9265 178.842Z" fill="white"/>
<g opacity="0.6" filter="url(#filter4_f)">
<circle r="85.5" transform="matrix(-1 9.68721e-09 -7.16863e-09 1 78.5 176.5)" fill="#4E15C5" fill-opacity="0.7"/>
</g>
<g opacity="0.6" filter="url(#filter5_f)">
<circle cx="344.5" cy="361.5" r="52.5" fill="#FFC107"/>
</g>
<path d="M157.626 284.511C157.626 288.513 156.193 292.384 153.586 295.421C150.98 298.459 147.372 300.463 143.416 301.071L142.884 297.608C146.012 297.127 148.866 295.542 150.927 293.139C152.988 290.737 154.122 287.676 154.122 284.511L157.626 284.511Z" fill="url(#paint2_radial)"/>
<path d="M124.325 282.2C124.888 278.206 126.873 274.55 129.915 271.902C132.956 269.254 136.851 267.792 140.884 267.784L140.891 271.288C137.701 271.294 134.621 272.451 132.215 274.545C129.81 276.639 128.24 279.531 127.795 282.689L124.325 282.2Z" fill="url(#paint3_radial)"/>
<path d="M140.871 301.266C138.671 301.266 136.492 300.832 134.459 299.99C132.427 299.148 130.58 297.914 129.024 296.358C127.468 294.803 126.234 292.956 125.392 290.923C124.55 288.89 124.116 286.711 124.116 284.511L127.621 284.511C127.621 286.251 127.963 287.974 128.629 289.582C129.295 291.189 130.271 292.65 131.502 293.88C132.732 295.111 134.193 296.087 135.8 296.753C137.408 297.419 139.131 297.761 140.871 297.761L140.871 301.266Z" fill="#FAB400"/>
<path d="M140.871 267.756C143.072 267.756 145.25 268.189 147.283 269.031C149.316 269.873 151.163 271.108 152.719 272.663C154.275 274.219 155.509 276.066 156.351 278.099C157.193 280.132 157.626 282.31 157.626 284.511L140.871 284.511L140.871 267.756Z" fill="#7B68EE"/>
<rect x="133.756" y="262.707" width="14.0005" height="2.98372" rx="1.49186" fill="#7B68EE"/>
<rect x="155.941" y="267.611" width="8.28459" height="2.98372" rx="1.49186" transform="rotate(51.6729 155.941 267.611)" fill="#7B68EE"/>
<path d="M173.788 290.997C175.817 290.997 177.13 290.112 177.8 288.834L177.908 288.834L177.908 290.738L181.518 290.738L181.518 281.48C181.518 278.209 178.748 276.833 175.692 276.833C172.403 276.833 170.24 278.406 169.713 280.908L173.234 281.194C173.493 280.282 174.306 279.612 175.674 279.612C176.969 279.612 177.711 280.265 177.711 281.391L177.711 281.444C177.711 282.329 176.773 282.445 174.387 282.677C171.67 282.928 169.231 283.839 169.231 286.904C169.231 289.621 171.17 290.997 173.788 290.997ZM174.878 288.37C173.708 288.37 172.868 287.825 172.868 286.779C172.868 285.707 173.752 285.18 175.093 284.992C175.924 284.876 177.282 284.679 177.738 284.375L177.738 285.832C177.738 287.271 176.549 288.37 174.878 288.37Z" fill="#7B68EE"/>
<path d="M189.583 291.006C193.238 291.006 195.535 288.861 195.714 285.707L192.121 285.707C191.898 287.172 190.933 287.994 189.628 287.994C187.85 287.994 186.697 286.502 186.697 283.875C186.697 281.283 187.859 279.8 189.628 279.8C191.022 279.8 191.916 280.72 192.121 282.088L195.714 282.088C195.553 278.915 193.149 276.833 189.566 276.833C185.401 276.833 182.828 279.72 182.828 283.928C182.828 288.102 185.357 291.006 189.583 291.006Z" fill="#7B68EE"/>
<path d="M203.263 291.006C206.918 291.006 209.215 288.861 209.393 285.707L205.801 285.707C205.578 287.172 204.612 287.994 203.308 287.994C201.53 287.994 200.377 286.502 200.377 283.875C200.377 281.283 201.538 279.8 203.308 279.8C204.702 279.8 205.595 280.72 205.801 282.088L209.393 282.088C209.232 278.915 206.829 276.833 203.245 276.833C199.081 276.833 196.507 279.72 196.507 283.928C196.507 288.102 199.036 291.006 203.263 291.006Z" fill="#7B68EE"/>
<path d="M219.543 284.894C219.552 286.734 218.292 287.699 216.925 287.699C215.486 287.699 214.557 286.69 214.548 285.072L214.548 277.012L210.741 277.012L210.741 285.751C210.75 288.959 212.627 290.917 215.388 290.917C217.452 290.917 218.936 289.853 219.552 288.245L219.695 288.245L219.695 290.738L223.35 290.738L223.35 277.012L219.543 277.012L219.543 284.894Z" fill="#7B68EE"/>
<path d="M234.092 277.012L231.509 277.012L231.509 273.723L227.702 273.723L227.702 277.012L225.826 277.012L225.826 279.871L227.702 279.871L227.702 287.02C227.684 289.71 229.516 291.041 232.278 290.925C233.261 290.889 233.958 290.693 234.342 290.568L233.743 287.735C233.555 287.771 233.153 287.86 232.796 287.86C232.036 287.86 231.509 287.574 231.509 286.52L231.509 279.871L234.092 279.871L234.092 277.012Z" fill="#FAB400"/>
<path d="M235.482 290.738L239.289 290.738L239.289 282.972C239.289 281.283 240.522 280.121 242.202 280.121C242.729 280.121 243.453 280.211 243.81 280.327L243.81 276.949C243.471 276.869 242.997 276.815 242.613 276.815C241.076 276.815 239.816 277.709 239.315 279.406L239.172 279.406L239.172 277.012L235.482 277.012L235.482 290.738Z" fill="#FAB400"/>
<path d="M248.21 290.997C250.238 290.997 251.552 290.112 252.222 288.834L252.329 288.834L252.329 290.738L255.94 290.738L255.94 281.48C255.94 278.209 253.169 276.833 250.113 276.833C246.825 276.833 244.662 278.406 244.135 280.908L247.656 281.194C247.915 280.282 248.728 279.612 250.095 279.612C251.391 279.612 252.133 280.264 252.133 281.39L252.133 281.444C252.133 282.329 251.195 282.445 248.809 282.677C246.092 282.927 243.652 283.839 243.652 286.904C243.652 289.621 245.592 290.997 248.21 290.997ZM249.3 288.369C248.129 288.369 247.289 287.824 247.289 286.779C247.289 285.706 248.174 285.179 249.515 284.992C250.346 284.875 251.704 284.679 252.16 284.375L252.16 285.832C252.16 287.27 250.971 288.369 249.3 288.369Z" fill="#FAB400"/>
<path d="M264.005 291.006C267.66 291.006 269.957 288.861 270.135 285.706L266.543 285.706C266.32 287.172 265.354 287.994 264.05 287.994C262.272 287.994 261.119 286.502 261.119 283.875C261.119 281.283 262.28 279.8 264.05 279.8C265.444 279.8 266.337 280.72 266.543 282.087L270.135 282.087C269.974 278.915 267.571 276.833 263.987 276.833C259.823 276.833 257.249 279.719 257.249 283.928C257.249 288.101 259.778 291.006 264.005 291.006Z" fill="#FAB400"/>
<path d="M271.483 290.738L275.29 290.738L275.29 286.377L276.318 285.206L280.062 290.738L284.521 290.738L279.168 282.954L284.262 277.012L279.892 277.012L275.495 282.221L275.29 282.221L275.29 272.436L271.483 272.436L271.483 290.738Z" fill="#FAB400"/>
<path d="M285.04 290.738L288.847 290.738L288.847 282.972C288.847 281.283 290.08 280.121 291.76 280.121C292.287 280.121 293.011 280.211 293.368 280.327L293.368 276.949C293.029 276.869 292.555 276.815 292.171 276.815C290.634 276.815 289.374 277.709 288.874 279.406L288.731 279.406L288.731 277.012L285.04 277.012L285.04 290.738Z" fill="#FAB400"/>
</g>
<path d="M364.051 283.238C365.413 283.226 366.072 281.485 365.024 280.596C363.983 279.711 362.35 280.632 362.569 281.979C362.686 282.7 363.324 283.231 364.051 283.238Z" fill="#EEEEEE"/>
<path d="M54.4596 288.722C57.3785 288.715 60.0514 286.842 61.0363 284.09C62.0192 281.343 61.1484 278.188 58.8927 276.336C56.6369 274.485 53.3747 274.243 50.8712 275.742C48.3676 277.241 47.04 280.232 47.6076 283.095C48.1733 285.947 50.5265 288.199 53.4002 288.641C53.7505 288.694 54.1047 288.721 54.4596 288.722Z" stroke="#EEEEEE" stroke-width="0.84375" stroke-miterlimit="10" stroke-linecap="round" stroke-linejoin="round"/>
</g>
<g filter="url(#filter6_ddd)">
<path d="M622 238.962H621.265L621.26 200.085C621.26 191.276 613.986 184.062 605.093 184.062L528.886 184.057C519.992 184.057 512.713 191.265 512.719 200.08V217.213H512V224.746H512.719V233.114H512V248.185H512.719V253.315H512V268.387H512.724L512.735 385.028C512.735 393.837 520.008 401.051 528.902 401.051L605.109 401.057C614.002 401.057 621.281 393.848 621.276 385.034L621.265 263.076H622V238.962Z" fill="#F9F9F9"/>
<path d="M605.302 400.302L528.714 400.296C520.347 400.296 513.497 393.508 513.497 385.214L513.475 199.893C513.475 191.595 520.325 184.812 528.693 184.812L605.28 184.817C613.648 184.817 620.498 191.606 620.498 199.899L620.52 385.22C620.52 393.518 613.675 400.302 605.302 400.302Z" fill="#F9F9F9"/>
<mask id="mask2" style="mask-type:alpha" maskUnits="userSpaceOnUse" x="519" y="190" width="96" height="205">
<path d="M614.356 201.664C614.356 195.598 609.346 190.638 603.226 190.633H591.033C590.518 190.633 590.1 191.047 590.1 191.558C590.1 195.104 587.171 198.006 583.593 198.006H547.156C543.578 198.006 540.649 195.104 540.649 191.558V191.552C540.649 191.042 540.231 190.627 539.716 190.627H530.72C524.6 190.627 519.59 195.593 519.59 201.658L519.606 383.014C519.606 389.079 524.616 394.039 530.736 394.045L603.247 394.05C609.368 394.05 614.378 389.085 614.378 383.019L614.356 201.664Z" fill="#EEEEEE"/>
</mask>
<g mask="url(#mask2)">
<path d="M614.356 201.664C614.356 195.598 609.346 190.638 603.226 190.633H591.033C590.518 190.633 590.1 191.047 590.1 191.558C590.1 195.104 587.171 198.006 583.593 198.006H547.156C543.578 198.006 540.649 195.104 540.649 191.558V191.552C540.649 191.042 540.231 190.627 539.716 190.627H530.72C524.6 190.627 519.59 195.593 519.59 201.658L519.606 383.014C519.606 389.079 524.616 394.039 530.736 394.045L603.247 394.05C609.368 394.05 614.378 389.085 614.378 383.019L614.356 201.664Z" fill="white"/>
<g opacity="0.6" filter="url(#filter7_f)">
<circle r="59.5001" transform="matrix(-1 0 0 1 501.5 194.5)" fill="#4E15C5" fill-opacity="0.7"/>
</g>
<g opacity="0.6" filter="url(#filter8_f)">
<circle cx="611" cy="363" r="50" fill="#FFC107"/>
</g>
<path d="M541.894 293.227C541.894 295.183 541.194 297.074 539.92 298.559C538.646 300.043 536.883 301.023 534.95 301.32L534.69 299.627C536.219 299.392 537.613 298.618 538.62 297.444C539.628 296.27 540.182 294.774 540.182 293.227H541.894Z" fill="url(#paint4_radial)"/>
<path d="M525.62 292.097C525.895 290.146 526.865 288.359 528.352 287.065C529.838 285.771 531.742 285.056 533.713 285.053L533.716 286.765C532.157 286.768 530.652 287.333 529.476 288.357C528.301 289.38 527.534 290.793 527.316 292.336L525.62 292.097Z" fill="url(#paint5_radial)"/>
<path d="M533.706 301.415C532.631 301.415 531.566 301.203 530.573 300.791C529.579 300.38 528.677 299.777 527.917 299.016C527.156 298.256 526.553 297.354 526.142 296.36C525.73 295.367 525.518 294.302 525.518 293.227L527.231 293.227C527.231 294.077 527.398 294.919 527.724 295.705C528.049 296.49 528.526 297.204 529.127 297.806C529.729 298.407 530.443 298.884 531.228 299.209C532.014 299.535 532.856 299.702 533.706 299.702L533.706 301.415Z" fill="#FAB400"/>
<path d="M533.706 285.039C534.782 285.039 535.846 285.251 536.84 285.662C537.833 286.074 538.736 286.677 539.496 287.437C540.256 288.197 540.859 289.1 541.271 290.093C541.682 291.087 541.894 292.152 541.894 293.227L533.706 293.227L533.706 285.039Z" fill="#7B68EE"/>
<rect x="530.229" y="282.571" width="6.84189" height="1.45811" rx="0.729054" fill="#7B68EE"/>
<rect x="541.071" y="284.968" width="4.04858" height="1.45811" rx="0.729054" transform="rotate(51.6729 541.071 284.968)" fill="#7B68EE"/>
<path d="M549.792 296.396C550.784 296.396 551.426 295.964 551.753 295.34H551.805V296.27H553.57V291.746C553.57 290.147 552.216 289.475 550.722 289.475C549.115 289.475 548.059 290.243 547.801 291.466L549.522 291.606C549.648 291.16 550.046 290.833 550.714 290.833C551.347 290.833 551.709 291.152 551.709 291.702V291.728C551.709 292.16 551.251 292.217 550.085 292.331C548.757 292.453 547.565 292.898 547.565 294.396C547.565 295.724 548.513 296.396 549.792 296.396ZM550.325 295.113C549.753 295.113 549.342 294.846 549.342 294.335C549.342 293.811 549.775 293.554 550.43 293.462C550.836 293.405 551.5 293.309 551.723 293.16V293.872C551.723 294.575 551.142 295.113 550.325 295.113Z" fill="#7B68EE"/>
<path d="M557.511 296.401C559.297 296.401 560.42 295.353 560.507 293.811H558.751C558.642 294.527 558.171 294.929 557.533 294.929C556.664 294.929 556.101 294.2 556.101 292.916C556.101 291.649 556.668 290.925 557.533 290.925C558.214 290.925 558.651 291.374 558.751 292.043H560.507C560.428 290.492 559.254 289.475 557.503 289.475C555.468 289.475 554.21 290.885 554.21 292.942C554.21 294.982 555.446 296.401 557.511 296.401Z" fill="#7B68EE"/>
<path d="M564.196 296.401C565.982 296.401 567.105 295.353 567.192 293.811H565.437C565.327 294.527 564.856 294.929 564.218 294.929C563.349 294.929 562.786 294.2 562.786 292.916C562.786 291.649 563.354 290.925 564.218 290.925C564.899 290.925 565.336 291.374 565.437 292.043H567.192C567.114 290.492 565.939 289.475 564.188 289.475C562.153 289.475 560.895 290.885 560.895 292.942C560.895 294.982 562.131 296.401 564.196 296.401Z" fill="#7B68EE"/>
<path d="M572.152 293.414C572.157 294.313 571.541 294.785 570.873 294.785C570.17 294.785 569.715 294.292 569.711 293.501V289.562H567.851V293.833C567.855 295.401 568.772 296.357 570.122 296.357C571.13 296.357 571.855 295.837 572.157 295.051H572.226V296.27H574.013V289.562H572.152V293.414Z" fill="#7B68EE"/>
<path d="M579.262 289.562H578V287.955H576.139V289.562H575.222V290.96H576.139V294.453C576.131 295.768 577.026 296.418 578.375 296.361C578.856 296.344 579.196 296.248 579.384 296.187L579.092 294.802C579 294.82 578.803 294.864 578.629 294.864C578.257 294.864 578 294.724 578 294.209V290.96H579.262V289.562Z" fill="#FAB400"/>
<path d="M579.941 296.27H581.802V292.475C581.802 291.649 582.404 291.082 583.225 291.082C583.483 291.082 583.837 291.125 584.011 291.182V289.532C583.845 289.492 583.614 289.466 583.426 289.466C582.675 289.466 582.059 289.903 581.815 290.732H581.745V289.562H579.941V296.27Z" fill="#FAB400"/>
<path d="M586.161 296.396C587.153 296.396 587.795 295.964 588.122 295.34H588.174V296.27H589.939V291.746C589.939 290.147 588.585 289.475 587.091 289.475C585.484 289.475 584.428 290.243 584.17 291.466L585.891 291.606C586.017 291.16 586.415 290.833 587.083 290.833C587.716 290.833 588.078 291.152 588.078 291.702V291.728C588.078 292.16 587.62 292.217 586.454 292.331C585.126 292.453 583.934 292.898 583.934 294.396C583.934 295.724 584.882 296.396 586.161 296.396ZM586.694 295.113C586.122 295.113 585.711 294.846 585.711 294.335C585.711 293.811 586.144 293.554 586.799 293.462C587.205 293.405 587.869 293.309 588.091 293.16V293.872C588.091 294.575 587.511 295.113 586.694 295.113Z" fill="#FAB400"/>
<path d="M593.88 296.401C595.666 296.401 596.789 295.353 596.876 293.811H595.12C595.011 294.527 594.54 294.929 593.902 294.929C593.033 294.929 592.47 294.2 592.47 292.916C592.47 291.649 593.037 290.925 593.902 290.925C594.583 290.925 595.02 291.374 595.12 292.043H596.876C596.797 290.492 595.623 289.475 593.872 289.475C591.836 289.475 590.579 290.885 590.579 292.942C590.579 294.982 591.815 296.401 593.88 296.401Z" fill="#FAB400"/>
<path d="M597.535 296.27H599.395V294.139L599.897 293.567L601.727 296.27H603.906L601.29 292.466L603.779 289.562H601.644L599.495 292.108H599.395V287.326H597.535V296.27Z" fill="#FAB400"/>
<path d="M604.16 296.27H606.02V292.475C606.02 291.649 606.623 291.082 607.444 291.082C607.701 291.082 608.055 291.125 608.23 291.182V289.532C608.064 289.492 607.832 289.466 607.645 289.466C606.893 289.466 606.278 289.903 606.033 290.732H605.963V289.562H604.16V296.27Z" fill="#FAB400"/>
</g>
<path d="M582.934 392.221H550.498C550.106 392.221 549.784 391.902 549.784 391.514C549.784 391.126 550.106 390.807 550.498 390.807H582.934C583.326 390.807 583.647 391.126 583.647 391.514C583.642 391.902 583.326 392.221 582.934 392.221Z" fill="#BFBFBF"/>
<path d="M572.072 193.954H562.127C561.66 193.954 561.279 193.577 561.279 193.114C561.279 192.652 561.66 192.274 562.127 192.274H572.072C572.538 192.274 572.919 192.652 572.919 193.114C572.919 193.577 572.538 193.954 572.072 193.954Z" fill="#EEEEEE"/>
<path d="M578.138 193.631C578.5 193.631 578.793 193.341 578.793 192.983C578.793 192.624 578.5 192.334 578.138 192.334C577.777 192.334 577.484 192.624 577.484 192.983C577.484 193.341 577.777 193.631 578.138 193.631Z" fill="white"/>
<path d="M578.138 194.172C578.727 194.172 579.205 193.699 579.205 193.115C579.205 192.53 578.727 192.057 578.138 192.057C577.548 192.057 577.07 192.53 577.07 193.115C577.07 193.699 577.548 194.172 578.138 194.172Z" fill="#F9F9F9" stroke="#EEEEEE" stroke-width="0.5" stroke-miterlimit="10"/>
</g>
<defs>
<filter id="filter0_ddd" x="7" y="0.0566406" width="638.617" height="383" filterUnits="userSpaceOnUse" color-interpolation-filters="sRGB">
<feFlood flood-opacity="0" result="BackgroundImageFix"/>
<feColorMatrix in="SourceAlpha" type="matrix" values="0 0 0 0 0 0 0 0 0 0 0 0 0 0 0 0 0 0 127 0" result="hardAlpha"/>
<feOffset dy="1.62963"/>
<feGaussianBlur stdDeviation="1.62963"/>
<feColorMatrix type="matrix" values="0 0 0 0 0 0 0 0 0 0 0 0 0 0 0 0 0 0 0.0235556 0"/>
<feBlend mode="normal" in2="BackgroundImageFix" result="effect1_dropShadow"/>
<feColorMatrix in="SourceAlpha" type="matrix" values="0 0 0 0 0 0 0 0 0 0 0 0 0 0 0 0 0 0 127 0" result="hardAlpha"/>
<feOffset dy="7.7037"/>
<feGaussianBlur stdDeviation="6.37037"/>
<feColorMatrix type="matrix" values="0 0 0 0 0 0 0 0 0 0 0 0 0 0 0 0 0 0 0.0364444 0"/>
<feBlend mode="normal" in2="effect1_dropShadow" result="effect2_dropShadow"/>
<feColorMatrix in="SourceAlpha" type="matrix" values="0 0 0 0 0 0 0 0 0 0 0 0 0 0 0 0 0 0 127 0" result="hardAlpha"/>
<feOffset dy="20"/>
<feGaussianBlur stdDeviation="20"/>
<feColorMatrix type="matrix" values="0 0 0 0 0 0 0 0 0 0 0 0 0 0 0 0 0 0 0.06 0"/>
<feBlend mode="normal" in2="effect2_dropShadow" result="effect3_dropShadow"/>
<feBlend mode="normal" in="SourceGraphic" in2="effect3_dropShadow" result="shape"/>
</filter>
<filter id="filter1_f" x="-284.226" y="-336.226" width="742.452" height="742.452" filterUnits="userSpaceOnUse" color-interpolation-filters="sRGB">
<feFlood flood-opacity="0" result="BackgroundImageFix"/>
<feBlend mode="normal" in="SourceGraphic" in2="BackgroundImageFix" result="shape"/>
<feGaussianBlur stdDeviation="117.113" result="effect1_foregroundBlur"/>
</filter>
<filter id="filter2_f" x="271.622" y="-13.3784" width="532.757" height="532.757" filterUnits="userSpaceOnUse" color-interpolation-filters="sRGB">
<feFlood flood-opacity="0" result="BackgroundImageFix"/>
<feBlend mode="normal" in="SourceGraphic" in2="BackgroundImageFix" result="shape"/>
<feGaussianBlur stdDeviation="89.1892" result="effect1_foregroundBlur"/>
</filter>
<filter id="filter3_ddd" x="-0.00012207" y="142.095" width="419" height="319.294" filterUnits="userSpaceOnUse" color-interpolation-filters="sRGB">
<feFlood flood-opacity="0" result="BackgroundImageFix"/>
<feColorMatrix in="SourceAlpha" type="matrix" values="0 0 0 0 0 0 0 0 0 0 0 0 0 0 0 0 0 0 127 0" result="hardAlpha"/>
<feOffset dy="1.62963"/>
<feGaussianBlur stdDeviation="1.62963"/>
<feColorMatrix type="matrix" values="0 0 0 0 0 0 0 0 0 0 0 0 0 0 0 0 0 0 0.0235556 0"/>
<feBlend mode="normal" in2="BackgroundImageFix" result="effect1_dropShadow"/>
<feColorMatrix in="SourceAlpha" type="matrix" values="0 0 0 0 0 0 0 0 0 0 0 0 0 0 0 0 0 0 127 0" result="hardAlpha"/>
<feOffset dy="7.7037"/>
<feGaussianBlur stdDeviation="6.37037"/>
<feColorMatrix type="matrix" values="0 0 0 0 0 0 0 0 0 0 0 0 0 0 0 0 0 0 0.0364444 0"/>
<feBlend mode="normal" in2="effect1_dropShadow" result="effect2_dropShadow"/>
<feColorMatrix in="SourceAlpha" type="matrix" values="0 0 0 0 0 0 0 0 0 0 0 0 0 0 0 0 0 0 127 0" result="hardAlpha"/>
<feOffset dy="20"/>
<feGaussianBlur stdDeviation="20"/>
<feColorMatrix type="matrix" values="0 0 0 0 0 0 0 0 0 0 0 0 0 0 0 0 0 0 0.06 0"/>
<feBlend mode="normal" in2="effect2_dropShadow" result="effect3_dropShadow"/>
<feBlend mode="normal" in="SourceGraphic" in2="effect3_dropShadow" result="shape"/>
</filter>
<filter id="filter4_f" x="-153.177" y="-55.1774" width="463.355" height="463.355" filterUnits="userSpaceOnUse" color-interpolation-filters="sRGB">
<feFlood flood-opacity="0" result="BackgroundImageFix"/>
<feBlend mode="normal" in="SourceGraphic" in2="BackgroundImageFix" result="shape"/>
<feGaussianBlur stdDeviation="73.0887" result="effect1_foregroundBlur"/>
</filter>
<filter id="filter5_f" x="185.581" y="202.581" width="317.838" height="317.838" filterUnits="userSpaceOnUse" color-interpolation-filters="sRGB">
<feFlood flood-opacity="0" result="BackgroundImageFix"/>
<feBlend mode="normal" in="SourceGraphic" in2="BackgroundImageFix" result="shape"/>
<feGaussianBlur stdDeviation="53.2094" result="effect1_foregroundBlur"/>
</filter>
<filter id="filter6_ddd" x="472" y="164.057" width="190" height="297" filterUnits="userSpaceOnUse" color-interpolation-filters="sRGB">
<feFlood flood-opacity="0" result="BackgroundImageFix"/>
<feColorMatrix in="SourceAlpha" type="matrix" values="0 0 0 0 0 0 0 0 0 0 0 0 0 0 0 0 0 0 127 0" result="hardAlpha"/>
<feOffset dy="1.62963"/>
<feGaussianBlur stdDeviation="1.62963"/>
<feColorMatrix type="matrix" values="0 0 0 0 0 0 0 0 0 0 0 0 0 0 0 0 0 0 0.0235556 0"/>
<feBlend mode="normal" in2="BackgroundImageFix" result="effect1_dropShadow"/>
<feColorMatrix in="SourceAlpha" type="matrix" values="0 0 0 0 0 0 0 0 0 0 0 0 0 0 0 0 0 0 127 0" result="hardAlpha"/>
<feOffset dy="7.7037"/>
<feGaussianBlur stdDeviation="6.37037"/>
<feColorMatrix type="matrix" values="0 0 0 0 0 0 0 0 0 0 0 0 0 0 0 0 0 0 0.0364444 0"/>
<feBlend mode="normal" in2="effect1_dropShadow" result="effect2_dropShadow"/>
<feColorMatrix in="SourceAlpha" type="matrix" values="0 0 0 0 0 0 0 0 0 0 0 0 0 0 0 0 0 0 127 0" result="hardAlpha"/>
<feOffset dy="20"/>
<feGaussianBlur stdDeviation="20"/>
<feColorMatrix type="matrix" values="0 0 0 0 0 0 0 0 0 0 0 0 0 0 0 0 0 0 0.06 0"/>
<feBlend mode="normal" in2="effect2_dropShadow" result="effect3_dropShadow"/>
<feBlend mode="normal" in="SourceGraphic" in2="effect3_dropShadow" result="shape"/>
</filter>
<filter id="filter7_f" x="340.274" y="33.274" width="322.452" height="322.452" filterUnits="userSpaceOnUse" color-interpolation-filters="sRGB">
<feFlood flood-opacity="0" result="BackgroundImageFix"/>
<feBlend mode="normal" in="SourceGraphic" in2="BackgroundImageFix" result="shape"/>
<feGaussianBlur stdDeviation="50.863" result="effect1_foregroundBlur"/>
</filter>
<filter id="filter8_f" x="459.649" y="211.649" width="302.703" height="302.703" filterUnits="userSpaceOnUse" color-interpolation-filters="sRGB">
<feFlood flood-opacity="0" result="BackgroundImageFix"/>
<feBlend mode="normal" in="SourceGraphic" in2="BackgroundImageFix" result="shape"/>
<feGaussianBlur stdDeviation="50.6757" result="effect1_foregroundBlur"/>
</filter>
<radialGradient id="paint0_radial" cx="0" cy="0" r="1" gradientUnits="userSpaceOnUse" gradientTransform="translate(205.338 121.43) rotate(135) scale(56.0953)">
<stop stop-color="#191970"/>
<stop offset="1" stop-color="#7B68EE"/>
</radialGradient>
<radialGradient id="paint1_radial" cx="0" cy="0" r="1" gradientUnits="userSpaceOnUse" gradientTransform="translate(205.43 121.488) rotate(135) scale(56.0953)">
<stop stop-color="#191970"/>
<stop offset="1" stop-color="#7B68EE"/>
</radialGradient>
<radialGradient id="paint2_radial" cx="0" cy="0" r="1" gradientUnits="userSpaceOnUse" gradientTransform="translate(150.903 276.429) rotate(135) scale(27.0088)">
<stop stop-color="#191970"/>
<stop offset="1" stop-color="#7B68EE"/>
</radialGradient>
<radialGradient id="paint3_radial" cx="0" cy="0" r="1" gradientUnits="userSpaceOnUse" gradientTransform="translate(150.948 276.458) rotate(135) scale(27.0088)">
<stop stop-color="#191970"/>
<stop offset="1" stop-color="#7B68EE"/>
</radialGradient>
<radialGradient id="paint4_radial" cx="0" cy="0" r="1" gradientUnits="userSpaceOnUse" gradientTransform="translate(538.609 289.278) rotate(135) scale(13.1989)">
<stop stop-color="#191970"/>
<stop offset="1" stop-color="#7B68EE"/>
</radialGradient>
<radialGradient id="paint5_radial" cx="0" cy="0" r="1" gradientUnits="userSpaceOnUse" gradientTransform="translate(538.631 289.291) rotate(135) scale(13.1989)">
<stop stop-color="#191970"/>
<stop offset="1" stop-color="#7B68EE"/>
</radialGradient>
</defs>
</svg>
