<svg width="175" height="43" viewBox="0 0 175 43" fill="none" xmlns="http://www.w3.org/2000/svg">
<path d="M36.7267 23.0263C36.7267 26.4176 35.7211 29.7328 33.8369 32.5525C31.9528 35.3723 29.2748 37.5701 26.1417 38.8679C23.0085 40.1657 19.5608 40.5053 16.2347 39.8436C12.9085 39.182 9.85321 37.5489 7.45518 35.1509C5.05715 32.7529 3.42407 29.6976 2.76245 26.3714C2.10084 23.0453 2.44041 19.5976 3.73821 16.4644C5.03602 13.3313 7.23378 10.6533 10.0536 8.76916C12.8734 6.88504 16.1885 5.87939 19.5799 5.87939L19.5799 9.46566C16.8978 9.46566 14.276 10.261 12.046 11.751C9.81596 13.2411 8.07786 15.359 7.05149 17.8368C6.02512 20.3147 5.75657 23.0413 6.27981 25.6718C6.80305 28.3023 8.09457 30.7186 9.99105 32.615C11.8875 34.5115 14.3038 35.8031 16.9343 36.3263C19.5648 36.8495 22.2914 36.581 24.7693 35.5546C27.2471 34.5282 29.365 32.7901 30.8551 30.5601C32.3451 28.3301 33.1404 25.7083 33.1404 23.0263H36.7267Z" fill="url(#paint0_radial)"/>
<path d="M19.5798 41.23H20.6368L20.6368 40.173L20.6368 36.5867V35.5297H19.5798C17.9378 35.5297 16.3119 35.2063 14.7949 34.5779C13.2779 33.9496 11.8995 33.0286 10.7385 31.8675C9.5774 30.7064 8.65639 29.328 8.02803 27.811C7.39966 26.294 7.07625 24.6681 7.07625 23.0261V21.9691H6.01925L2.43298 21.9691L1.37599 21.9691L1.37599 23.0261C1.37598 25.4167 1.84684 27.7838 2.76167 29.9924C3.6765 32.201 5.01739 34.2078 6.70777 35.8982C8.39816 37.5886 10.4049 38.9295 12.6135 39.8443C14.8221 40.7591 17.1893 41.23 19.5798 41.23Z" fill="#FFC107" stroke="#F7F7F7" stroke-width="2.114"/>
<path d="M19.5798 5.87939C21.8316 5.87939 24.0613 6.32291 26.1417 7.18462C28.222 8.04633 30.1123 9.30936 31.7045 10.9016C33.2967 12.4938 34.5598 14.3841 35.4215 16.4644C36.2832 18.5448 36.7267 20.7745 36.7267 23.0263L19.5798 23.0263L19.5798 5.87939Z" fill="#7B68EE"/>
<rect x="12.2979" y="0.712158" width="14.3282" height="3.05355" rx="1.52678" fill="#7B68EE"/>
<rect x="35.0017" y="5.73096" width="8.47848" height="3.05355" rx="1.52678" transform="rotate(51.6729 35.0017 5.73096)" fill="#7B68EE"/>
<path d="M53.2671 30.2718C55.3431 30.2718 56.6875 29.3664 57.3734 28.0586H57.4831V30.0066H61.1778V20.5321C61.1778 17.1849 58.3428 15.7765 55.2151 15.7765C51.8496 15.7765 49.6364 17.3861 49.0969 19.9468L52.7001 20.2394C52.9653 19.3066 53.7976 18.6207 55.1968 18.6207C56.5229 18.6207 57.2819 19.2883 57.2819 20.4406V20.4955C57.2819 21.4009 56.3217 21.5198 53.8799 21.7575C51.0997 22.0136 48.603 22.9464 48.603 26.0833C48.603 28.8634 50.5876 30.2718 53.2671 30.2718ZM54.3829 27.5831C53.1848 27.5831 52.3252 27.0252 52.3252 25.9552C52.3252 24.8578 53.2305 24.3182 54.6023 24.1262C55.4529 24.0073 56.8429 23.8061 57.3093 23.4951V24.9858C57.3093 26.4582 56.093 27.5831 54.3829 27.5831ZM69.4321 30.281C73.1725 30.281 75.5229 28.0861 75.7058 24.8578H72.0294C71.8007 26.3576 70.813 27.199 69.4778 27.199C67.6579 27.199 66.4782 25.6717 66.4782 22.983C66.4782 20.3309 67.6671 18.8127 69.4778 18.8127C70.9045 18.8127 71.819 19.7547 72.0294 21.1539H75.7058C75.5412 17.9074 73.0811 15.7765 69.4138 15.7765C65.1521 15.7765 62.5183 18.7304 62.5183 23.0379C62.5183 27.3087 65.1064 30.281 69.4321 30.281ZM83.4319 30.281C87.1723 30.281 89.5227 28.0861 89.7056 24.8578H86.0292C85.8006 26.3576 84.8129 27.199 83.4776 27.199C81.6577 27.199 80.478 25.6717 80.478 22.983C80.478 20.3309 81.6669 18.8127 83.4776 18.8127C84.9043 18.8127 85.8188 19.7547 86.0292 21.1539H89.7056C89.541 17.9074 87.0809 15.7765 83.4136 15.7765C79.1519 15.7765 76.5181 18.7304 76.5181 23.0379C76.5181 27.3087 79.1062 30.281 83.4319 30.281ZM100.093 24.0256C100.102 25.9095 98.8127 26.8972 97.4135 26.8972C95.9411 26.8972 94.99 25.8638 94.9808 24.2085V15.9594H91.0849V24.9035C91.0941 28.1867 93.0146 30.1895 95.8405 30.1895C97.953 30.1895 99.4711 29.1012 100.102 27.4551H100.248V30.0066H103.989V15.9594H100.093V24.0256Z" fill="#7B68EE"/>
<path d="M113.462 15.9594H110.819V12.5939H106.923V15.9594H105.002V18.8859H106.923V26.2021C106.905 28.9549 108.779 30.3175 111.605 30.1986C112.611 30.1621 113.325 29.9609 113.718 29.8328L113.105 26.9338C112.913 26.9704 112.502 27.0618 112.136 27.0618C111.358 27.0618 110.819 26.7692 110.819 25.69V18.8859H113.462V15.9594ZM114.885 30.0066H118.78V22.0593C118.78 20.3309 120.043 19.142 121.762 19.142C122.301 19.142 123.042 19.2334 123.408 19.3523V15.8954C123.06 15.8131 122.576 15.7582 122.183 15.7582C120.61 15.7582 119.32 16.6728 118.808 18.4104H118.662V15.9594H114.885V30.0066ZM127.91 30.2718C129.986 30.2718 131.331 29.3664 132.017 28.0586H132.126V30.0066H135.821V20.5321C135.821 17.1849 132.986 15.7765 129.858 15.7765C126.493 15.7765 124.28 17.3861 123.74 19.9468L127.343 20.2394C127.609 19.3066 128.441 18.6207 129.84 18.6207C131.166 18.6207 131.925 19.2883 131.925 20.4406V20.4955C131.925 21.4009 130.965 21.5198 128.523 21.7575C125.743 22.0136 123.246 22.9464 123.246 26.0833C123.246 28.8634 125.231 30.2718 127.91 30.2718ZM129.026 27.5831C127.828 27.5831 126.968 27.0252 126.968 25.9552C126.968 24.8578 127.874 24.3182 129.246 24.1262C130.096 24.0073 131.486 23.8061 131.953 23.4951V24.9858C131.953 26.4582 130.736 27.5831 129.026 27.5831ZM144.075 30.281C147.816 30.281 150.166 28.0861 150.349 24.8578H146.673C146.444 26.3576 145.456 27.199 144.121 27.199C142.301 27.199 141.121 25.6717 141.121 22.983C141.121 20.3309 142.31 18.8127 144.121 18.8127C145.548 18.8127 146.462 19.7547 146.673 21.1539H150.349C150.184 17.9074 147.724 15.7765 144.057 15.7765C139.795 15.7765 137.162 18.7304 137.162 23.0379C137.162 27.3087 139.75 30.281 144.075 30.281ZM151.728 30.0066H155.624V25.5437L156.676 24.3457L160.508 30.0066H165.071L159.593 22.041L164.806 15.9594H160.334L155.835 21.2911H155.624V11.277H151.728V30.0066ZM165.602 30.0066H169.498V22.0593C169.498 20.3309 170.76 19.142 172.48 19.142C173.019 19.142 173.76 19.2334 174.126 19.3523V15.8954C173.778 15.8131 173.294 15.7582 172.9 15.7582C171.327 15.7582 170.038 16.6728 169.526 18.4104H169.379V15.9594H165.602V30.0066Z" fill="#FFB507"/>
<defs>
<radialGradient id="paint0_radial" cx="0" cy="0" r="1" gradientUnits="userSpaceOnUse" gradientTransform="translate(29.8468 14.7558) rotate(135) scale(27.6409)">
<stop stop-color="#191970"/>
<stop offset="1" stop-color="#7B68EE"/>
</radialGradient>
</defs>
</svg>
