<svg width="97" height="40" viewBox="0 0 97 40" fill="none" xmlns="http://www.w3.org/2000/svg">
<path d="M15.7266 11.6454L15.8335 14.1041L14.1231 17.3112L11.4506 22.5494L10.9161 26.9323L12.8403 33.1326L17.2233 35.5913H23.8511L30.0514 30.8877L32.8309 23.5115L26.4168 15.7077L24.5995 11.3247L15.7266 11.6454Z" fill="#ECEFF1"/>
<path d="M30.9066 17.7388C29.1962 15.2801 27.8065 13.7835 27.0582 10.6833C26.3099 7.5832 27.272 8.43842 26.6306 5.76588C26.3099 4.37616 25.7754 3.41405 25.2409 2.66574C24.5994 1.91743 23.8511 1.48982 23.4235 1.38292C22.4614 0.848415 20.2165 -0.00679624 17.4371 1.48982C14.5507 2.98644 14.8714 6.19349 15.4059 12.7145C15.4059 13.1421 15.299 13.6766 15.0852 14.1042C14.6576 15.0663 13.9093 15.9215 13.2679 16.6698C12.5196 17.7388 11.7713 18.8079 11.2368 19.9838C9.95395 22.4425 8.77804 25.5426 9.09874 26.7186C9.63325 26.6117 16.368 36.8742 16.368 37.088C16.7956 36.9811 18.613 36.9811 20.2165 36.9811C22.4614 36.8742 23.7442 36.7673 25.5616 37.1949C25.5616 36.8742 25.4547 36.5535 25.4547 36.2328C25.4547 35.5914 25.5616 35.0569 25.6685 34.3086C25.7754 33.7741 25.8823 33.2395 25.9892 32.5981C24.9202 33.5602 22.9959 34.6293 21.1786 34.95C19.5751 35.2707 16.9025 34.7362 15.6197 33.1326C15.7266 33.1326 15.9404 33.1326 16.0473 33.0257C16.368 32.9188 16.6887 32.8119 16.7956 32.5981C17.1163 32.0636 16.9025 31.5291 16.6887 31.2084C16.4749 30.8877 14.8714 29.7118 14.1231 29.0704C13.3748 28.429 12.9472 28.1083 12.5196 27.6807L11.6644 26.8255C11.4506 26.6117 11.3437 26.3979 11.2368 26.291C11.023 25.7564 10.9161 25.115 11.023 24.2598C11.1299 23.0839 11.5575 22.1218 12.092 21.0528C12.3058 20.6252 12.8403 19.77 12.8403 19.77C12.8403 19.77 11.023 24.2598 11.9851 25.6495C11.9851 25.6495 12.092 24.2598 12.5196 22.8701C12.8403 21.908 13.3748 20.5183 14.0162 19.77C14.6576 19.0217 16.2611 16.2422 16.368 14.5318C16.368 13.7835 16.4749 13.0352 16.4749 12.5007C16.0473 12.0731 23.5304 11.0041 23.958 12.18C24.0649 12.6076 25.5616 16.456 26.4168 18.4871C26.8444 19.4493 27.3789 20.3045 27.6996 21.3735C28.0203 22.5494 28.2341 24.1529 28.2341 25.7564C28.2341 26.0771 28.2341 26.6117 28.1272 27.1462C28.341 27.1462 32.5102 22.6563 27.5927 18.9148C27.5927 18.9148 30.5859 20.3045 30.6928 23.0839C30.7997 25.3288 29.8376 27.1462 29.6238 27.4669C29.7307 27.4669 31.8687 28.429 31.9756 28.429C32.4032 28.429 33.2585 28.1083 33.2585 28.1083C33.3654 27.7876 33.6861 26.9324 33.6861 26.6117C34.4344 24.1529 32.6171 20.1976 30.9066 17.7388Z" fill="#263238"/>
<path d="M17.3302 10.683C18.0977 10.683 18.7199 9.72581 18.7199 8.54501C18.7199 7.36421 18.0977 6.40698 17.3302 6.40698C16.5626 6.40698 15.9404 7.36421 15.9404 8.54501C15.9404 9.72581 16.5626 10.683 17.3302 10.683Z" fill="#ECEFF1"/>
<path d="M22.1407 10.897C23.1444 10.897 23.958 9.79615 23.958 8.43823C23.958 7.0803 23.1444 5.97949 22.1407 5.97949C21.137 5.97949 20.3234 7.0803 20.3234 8.43823C20.3234 9.79615 21.137 10.897 22.1407 10.897Z" fill="#ECEFF1"/>
<path d="M18.1072 8.69173C18.0184 7.98884 17.6139 7.46105 17.2039 7.51288C16.7939 7.56471 16.5336 8.17652 16.6224 8.87941C16.7112 9.5823 17.1156 10.1101 17.5257 10.0583C17.9357 10.0064 18.196 9.39462 18.1072 8.69173Z" fill="#212121"/>
<path d="M22.0338 10.256C22.6242 10.256 23.1028 9.6338 23.1028 8.86628C23.1028 8.09876 22.6242 7.47656 22.0338 7.47656C21.4434 7.47656 20.9648 8.09876 20.9648 8.86628C20.9648 9.6338 21.4434 10.256 22.0338 10.256Z" fill="#212121"/>
<path d="M36.2517 32.3845C35.8241 32.1707 35.0758 31.85 34.4344 30.8879C34.1137 30.3534 34.2206 28.8568 33.6861 28.2154C33.3654 27.7877 32.9377 28.0015 32.8308 28.0015C31.8687 28.2154 29.6238 29.712 28.1272 28.0015C27.9134 27.7877 27.5927 27.467 27.0582 27.467C26.5237 27.467 26.3099 27.6808 26.0961 28.1084C25.8823 28.5361 25.8823 28.8568 25.8823 29.9258C25.8823 30.781 25.8823 31.7431 25.7754 32.4914C25.5615 34.3087 25.2408 35.3777 25.2408 36.4468C25.2408 37.6227 25.5615 38.371 25.9892 38.6917C26.3099 39.0124 26.8444 39.2262 28.0203 39.2262C29.1962 39.2262 29.9445 38.7986 30.6928 38.0503C31.2273 37.5158 31.6549 37.302 33.1516 36.233C34.3275 35.4846 36.1448 34.5225 36.4655 34.2018C36.6793 33.988 37 33.8811 37 33.2397C37 32.7052 36.5724 32.4914 36.2517 32.3845Z" fill="#FFC107"/>
<path d="M14.7645 32.7052C13.6955 30.9947 13.5886 30.674 12.8403 29.605C12.1989 28.536 10.8092 26.5049 9.95394 26.5049C9.31253 26.5049 8.99183 26.8256 8.56422 27.2532C8.13662 27.6808 7.70901 28.6429 6.9607 29.1774C6.31929 29.7119 4.50197 29.605 4.07436 30.2464C3.64676 30.8878 4.50197 31.85 4.50197 33.4535C4.50197 34.0949 3.96746 34.5225 3.86056 34.9501C3.75366 35.4846 3.64676 35.8053 3.86056 36.2329C4.28817 36.8743 4.82267 37.0881 8.45732 37.8364C10.3815 38.264 12.1989 39.3331 13.3748 39.44C14.5507 39.5469 16.5818 39.44 16.5818 36.5536C16.6887 34.8432 15.7266 34.4156 14.7645 32.7052Z" fill="#FFC107"/>
<path d="M16.7957 13.356C16.1543 12.9283 15.6198 12.5007 15.6198 11.8593C15.6198 11.2179 16.0474 11.0041 16.6888 10.4696C16.7957 10.3627 17.9716 9.2937 19.1475 9.2937C20.3234 9.2937 21.7131 10.042 22.2476 10.2558C23.2098 10.4696 24.1719 10.6834 24.065 11.4317C23.9581 12.5007 23.8512 12.7145 22.7821 13.2491C22.0338 13.4629 20.6441 14.6388 19.682 14.6388C19.2544 14.6388 18.613 14.6388 18.1854 14.5319C17.8647 14.425 17.3302 13.8905 16.7957 13.356Z" fill="#FFC107"/>
<path d="M16.5819 12.5001C16.7957 12.7139 17.1164 12.9277 17.4371 13.0346C17.6509 13.1415 17.9716 13.2484 17.9716 13.2484H18.9337C19.4682 13.2484 20.2165 13.0346 20.9648 12.607C21.7131 12.2863 21.82 12.0724 22.3545 11.8586C22.889 11.5379 23.4236 11.2172 23.2098 11.1103C22.996 11.0034 22.7821 11.1103 22.0338 11.5379C21.3924 11.9655 20.8579 12.1793 20.2165 12.5001C19.8958 12.607 19.4682 12.8208 19.1475 12.8208H18.1854C17.8647 12.8208 17.6509 12.7139 17.3302 12.607C17.1164 12.5001 17.0095 12.3932 16.9026 12.3932C16.6888 12.2862 16.2612 11.8586 16.0474 11.7517C16.0474 11.7517 15.8336 11.7517 15.9405 11.8586L16.5819 12.5001Z" fill="#634703"/>
<path d="M19.7889 10.1483C19.8958 10.3621 20.1096 10.3621 20.2165 10.469C20.3234 10.5759 20.4303 10.5759 20.4303 10.5759C20.5372 10.469 20.4303 10.2552 20.3234 10.2552C20.3234 10.0414 19.7889 10.0414 19.7889 10.1483Z" fill="#634703"/>
<path d="M18.0785 10.3622C18.0785 10.4691 18.2923 10.576 18.2923 10.4691C18.3992 10.3622 18.5061 10.2553 18.613 10.2553C18.8268 10.1484 18.7199 10.0415 18.3992 10.0415C18.1854 10.1484 18.1854 10.2553 18.0785 10.3622Z" fill="#634703"/>
<path d="M28.4479 29.2841V29.6048C28.6617 30.0324 29.1962 30.1393 29.6238 30.1393C30.2653 30.1393 30.9067 29.7117 31.2274 29.2841C31.2274 29.1772 31.3343 29.0703 31.4412 28.9634C31.655 28.6427 31.7619 28.4289 31.8688 28.3219C31.8688 28.3219 31.7619 28.215 31.7619 28.1081C31.655 27.8943 31.3343 27.6805 30.9067 27.5736C30.586 27.4667 30.0515 27.3598 29.8376 27.3598C28.8755 27.2529 28.341 27.5736 28.0203 27.8943C28.0203 27.8943 28.1272 27.8943 28.1272 28.0012C28.341 28.215 28.4479 28.4289 28.4479 28.7496C28.5548 28.9634 28.4479 29.0703 28.4479 29.2841Z" fill="#455A64"/>
<path d="M57.2784 25.5H64.3068V23.9886H59.0341V13.8636H57.2784V25.5ZM66.1733 25.5H67.8722V16.7727H66.1733V25.5ZM67.0312 15.4261C67.6165 15.4261 68.1051 14.9716 68.1051 14.4148C68.1051 13.858 67.6165 13.3977 67.0312 13.3977C66.4403 13.3977 65.9574 13.858 65.9574 14.4148C65.9574 14.9716 66.4403 15.4261 67.0312 15.4261ZM71.8565 20.3182C71.8565 18.9261 72.7088 18.1307 73.8906 18.1307C75.044 18.1307 75.7429 18.8864 75.7429 20.1534V25.5H77.4418V19.9489C77.4418 17.7898 76.2543 16.6591 74.4702 16.6591C73.1577 16.6591 72.2997 17.267 71.8963 18.1932H71.7884V16.7727H70.1577V25.5H71.8565V20.3182ZM85.2486 21.8807C85.2543 23.3636 84.152 24.0682 83.1974 24.0682C82.1463 24.0682 81.419 23.3068 81.419 22.1193V16.7727H79.7202V22.3239C79.7202 24.4886 80.9077 25.6136 82.5838 25.6136C83.8963 25.6136 84.7884 24.9205 85.1918 23.9886H85.2827V25.5H86.9531V16.7727H85.2486V21.8807ZM90.5767 16.7727H88.7131L91.3949 21.1364L88.679 25.5H90.5426L92.5028 22.2386L94.4688 25.5H96.3267L93.5824 21.1364L96.304 16.7727H94.446L92.5028 20.1705L90.5767 16.7727Z" fill="black"/>
</svg>
