<svg width="116" height="40" viewBox="0 0 116 40" fill="none" xmlns="http://www.w3.org/2000/svg">
<path d="M36.8215 29.1491C35.9015 31.186 35.4615 32.0968 34.28 33.8968C32.6292 36.4106 30.2985 39.5476 27.4169 39.5691C24.8538 39.5906 24.1923 37.8968 20.7138 37.9245C17.2354 37.9414 16.5108 39.5999 13.9446 39.5737C11.0631 39.5476 8.85692 36.7214 7.20461 34.2122C2.58461 27.1737 2.09692 18.9245 4.95231 14.5353C6.97231 11.4229 10.1692 9.59526 13.1708 9.59526C16.2277 9.59526 18.1492 11.2753 20.6769 11.2753C23.1292 11.2753 24.6231 9.59064 28.1585 9.59064C30.8323 9.59064 33.66 11.0476 35.68 13.5614C29.0708 17.1829 30.1446 26.623 36.8215 29.1491ZM25.4754 6.78141C26.7615 5.13064 27.7369 2.80141 27.3831 0.426025C25.2846 0.569102 22.8308 1.9091 21.3969 3.64449C20.0985 5.22449 19.0215 7.57218 19.4415 9.84295C21.7308 9.91679 24.1 8.55218 25.4754 6.78141Z" fill="black"/>
<path d="M57.2784 13.8636V25.5H58.9489V17.0739H59.0568L62.4886 25.483H63.875L67.3068 17.0795H67.4148V25.5H69.0852V13.8636H66.9545L63.25 22.9091H63.1136L59.4091 13.8636H57.2784ZM74.0412 25.6932C75.4844 25.6932 76.2969 24.9602 76.6207 24.3068H76.6889V25.5H78.348V19.7045C78.348 17.1648 76.348 16.6591 74.9616 16.6591C73.3821 16.6591 71.9276 17.2955 71.3594 18.8864L72.956 19.25C73.206 18.6307 73.8423 18.0341 74.9844 18.0341C76.081 18.0341 76.6435 18.608 76.6435 19.5966V19.6364C76.6435 20.2557 76.0071 20.2443 74.4389 20.4261C72.7855 20.6193 71.0923 21.0511 71.0923 23.0341C71.0923 24.75 72.3821 25.6932 74.0412 25.6932ZM74.4105 24.3295C73.4503 24.3295 72.7571 23.8977 72.7571 23.0568C72.7571 22.1477 73.5639 21.8239 74.5469 21.6932C75.098 21.6193 76.4048 21.4716 76.6491 21.2273V22.3523C76.6491 23.3864 75.8253 24.3295 74.4105 24.3295ZM84.2869 25.6761C86.3494 25.6761 87.6847 24.4375 87.8722 22.7386H86.2188C86.0028 23.6818 85.2699 24.2386 84.2983 24.2386C82.8608 24.2386 81.9347 23.0398 81.9347 21.1364C81.9347 19.267 82.8778 18.0909 84.2983 18.0909C85.3778 18.0909 86.0369 18.7727 86.2188 19.5909H87.8722C87.6903 17.8295 86.2528 16.6591 84.2699 16.6591C81.8097 16.6591 80.2188 18.5114 80.2188 21.1761C80.2188 23.8068 81.7528 25.6761 84.2869 25.6761ZM104.168 19.6818C104.168 15.9602 101.94 13.7045 98.929 13.7045C95.9062 13.7045 93.6847 15.9602 93.6847 19.6818C93.6847 23.3977 95.9062 25.6591 98.929 25.6591C101.94 25.6591 104.168 23.4034 104.168 19.6818ZM102.429 19.6818C102.429 22.517 100.929 24.0568 98.929 24.0568C96.9233 24.0568 95.429 22.517 95.429 19.6818C95.429 16.8466 96.9233 15.3068 98.929 15.3068C100.929 15.3068 102.429 16.8466 102.429 19.6818ZM112.703 16.9205H114.396C114.345 15.0568 112.697 13.7045 110.334 13.7045C107.999 13.7045 106.209 15.0398 106.209 17.0455C106.209 18.6648 107.368 19.6136 109.237 20.1193L110.612 20.4943C111.857 20.8239 112.817 21.233 112.817 22.267C112.817 23.4034 111.732 24.1534 110.237 24.1534C108.885 24.1534 107.76 23.5511 107.658 22.2841H105.896C106.01 24.392 107.641 25.6932 110.249 25.6932C112.982 25.6932 114.555 24.2557 114.555 22.2841C114.555 20.1875 112.686 19.375 111.209 19.0114L110.072 18.7159C109.163 18.483 107.953 18.0568 107.959 16.9432C107.959 15.9545 108.862 15.2216 110.294 15.2216C111.629 15.2216 112.578 15.8466 112.703 16.9205Z" fill="black"/>
</svg>
