<svg width="895" height="272" viewBox="0 0 895 272" fill="none" xmlns="http://www.w3.org/2000/svg">
<g filter="url(#filter0_dddd)">
<rect x="80" y="40" width="735" height="112" rx="12" fill="#F9FCF9"/>
<g filter="url(#filter1_i)">
<rect width="204" height="64" transform="translate(120 64)" fill="#F9FCF9"/>
<path d="M140.003 81.6587L156.347 79.4412L156.354 95.1477L140.018 95.2403L140.003 81.6588V81.6587ZM156.34 96.9572L156.352 112.677L140.015 110.44L140.015 96.8518L156.339 96.9572H156.34ZM158.321 79.151L179.992 76V94.9479L158.321 95.1191V79.1511V79.151ZM179.997 97.1051L179.992 115.967L158.321 112.92L158.29 97.0697L179.997 97.1051Z" fill="#00ADEF"/>
<path d="M199.557 101.5H201.33L203.778 92.7841H203.869L206.318 101.5H208.085L211.318 89.8636H209.466L207.205 98.8807H207.097L204.739 89.8636H202.909L200.551 98.875H200.443L198.176 89.8636H196.33L199.557 101.5ZM212.783 101.5H214.482V92.7727H212.783V101.5ZM213.641 91.4261C214.226 91.4261 214.714 90.9716 214.714 90.4148C214.714 89.858 214.226 89.3977 213.641 89.3977C213.05 89.3977 212.567 89.858 212.567 90.4148C212.567 90.9716 213.05 91.4261 213.641 91.4261ZM218.466 96.3182C218.466 94.9261 219.318 94.1307 220.5 94.1307C221.653 94.1307 222.352 94.8864 222.352 96.1534V101.5H224.051V95.9489C224.051 93.7898 222.864 92.6591 221.08 92.6591C219.767 92.6591 218.909 93.267 218.506 94.1932H218.398V92.7727H216.767V101.5H218.466V96.3182ZM229.597 101.67C231.188 101.67 231.812 100.699 232.119 100.142H232.261V101.5H233.92V89.8636H232.222V94.1875H232.119C231.812 93.6477 231.233 92.6591 229.608 92.6591C227.5 92.6591 225.949 94.3239 225.949 97.1534C225.949 99.9773 227.477 101.67 229.597 101.67ZM229.972 100.222C228.455 100.222 227.665 98.8864 227.665 97.1364C227.665 95.4034 228.438 94.1023 229.972 94.1023C231.455 94.1023 232.25 95.3125 232.25 97.1364C232.25 98.9716 231.438 100.222 229.972 100.222ZM240.021 101.676C242.482 101.676 244.089 99.875 244.089 97.1761C244.089 94.4602 242.482 92.6591 240.021 92.6591C237.561 92.6591 235.953 94.4602 235.953 97.1761C235.953 99.875 237.561 101.676 240.021 101.676ZM240.027 100.25C238.419 100.25 237.669 98.8466 237.669 97.1705C237.669 95.5 238.419 94.0795 240.027 94.0795C241.624 94.0795 242.374 95.5 242.374 97.1705C242.374 98.8466 241.624 100.25 240.027 100.25ZM247.612 101.5H249.339L251.112 95.1989H251.243L253.016 101.5H254.749L257.311 92.7727H255.555L253.857 99.1534H253.771L252.067 92.7727H250.311L248.595 99.1818H248.51L246.8 92.7727H245.044L247.612 101.5ZM265.463 94.9034C265.111 93.5455 264.048 92.6591 262.162 92.6591C260.19 92.6591 258.793 93.6989 258.793 95.2443C258.793 96.483 259.543 97.3068 261.179 97.6705L262.656 97.9943C263.497 98.1818 263.889 98.5568 263.889 99.1023C263.889 99.7784 263.168 100.307 262.054 100.307C261.037 100.307 260.384 99.8693 260.179 99.0114L258.537 99.2614C258.821 100.807 260.105 101.676 262.065 101.676C264.173 101.676 265.634 100.557 265.634 98.9773C265.634 97.7443 264.849 96.983 263.247 96.6136L261.861 96.2955C260.901 96.0682 260.486 95.7443 260.491 95.1534C260.486 94.483 261.213 94.0057 262.179 94.0057C263.236 94.0057 263.724 94.5909 263.923 95.1761L265.463 94.9034Z" fill="black"/>
</g>
<g filter="url(#filter2_i)">
<rect width="204" height="64" transform="translate(363 64)" fill="#F9FCF9"/>
<path d="M419.822 105.149C418.902 107.186 418.462 108.097 417.28 109.897C415.629 112.411 413.298 115.548 410.417 115.569C407.854 115.591 407.192 113.897 403.714 113.924C400.235 113.941 399.511 115.6 396.945 115.574C394.063 115.548 391.857 112.721 390.205 110.212C385.585 103.174 385.097 94.9245 387.952 90.5353C389.972 87.4229 393.169 85.5953 396.171 85.5953C399.228 85.5953 401.149 87.2753 403.677 87.2753C406.129 87.2753 407.623 85.5906 411.158 85.5906C413.832 85.5906 416.66 87.0476 418.68 89.5614C412.071 93.1829 413.145 102.623 419.822 105.149ZM408.475 82.7814C409.762 81.1306 410.737 78.8014 410.383 76.426C408.285 76.5691 405.831 77.9091 404.397 79.6445C403.098 81.2245 402.022 83.5722 402.442 85.8429C404.731 85.9168 407.1 84.5522 408.475 82.7814Z" fill="black"/>
<path d="M440.278 89.8636V101.5H441.949V93.0739H442.057L445.489 101.483H446.875L450.307 93.0795H450.415V101.5H452.085V89.8636H449.955L446.25 98.9091H446.114L442.409 89.8636H440.278ZM457.041 101.693C458.484 101.693 459.297 100.96 459.621 100.307H459.689V101.5H461.348V95.7045C461.348 93.1648 459.348 92.6591 457.962 92.6591C456.382 92.6591 454.928 93.2955 454.359 94.8864L455.956 95.25C456.206 94.6307 456.842 94.0341 457.984 94.0341C459.081 94.0341 459.643 94.608 459.643 95.5966V95.6364C459.643 96.2557 459.007 96.2443 457.439 96.4261C455.786 96.6193 454.092 97.0511 454.092 99.0341C454.092 100.75 455.382 101.693 457.041 101.693ZM457.411 100.33C456.45 100.33 455.757 99.8977 455.757 99.0568C455.757 98.1477 456.564 97.8239 457.547 97.6932C458.098 97.6193 459.405 97.4716 459.649 97.2273V98.3523C459.649 99.3864 458.825 100.33 457.411 100.33ZM467.287 101.676C469.349 101.676 470.685 100.438 470.872 98.7386H469.219C469.003 99.6818 468.27 100.239 467.298 100.239C465.861 100.239 464.935 99.0398 464.935 97.1364C464.935 95.267 465.878 94.0909 467.298 94.0909C468.378 94.0909 469.037 94.7727 469.219 95.5909H470.872C470.69 93.8295 469.253 92.6591 467.27 92.6591C464.81 92.6591 463.219 94.5114 463.219 97.1761C463.219 99.8068 464.753 101.676 467.287 101.676ZM487.168 95.6818C487.168 91.9602 484.94 89.7045 481.929 89.7045C478.906 89.7045 476.685 91.9602 476.685 95.6818C476.685 99.3977 478.906 101.659 481.929 101.659C484.94 101.659 487.168 99.4034 487.168 95.6818ZM485.429 95.6818C485.429 98.517 483.929 100.057 481.929 100.057C479.923 100.057 478.429 98.517 478.429 95.6818C478.429 92.8466 479.923 91.3068 481.929 91.3068C483.929 91.3068 485.429 92.8466 485.429 95.6818ZM495.703 92.9205H497.396C497.345 91.0568 495.697 89.7045 493.334 89.7045C490.999 89.7045 489.209 91.0398 489.209 93.0455C489.209 94.6648 490.368 95.6136 492.237 96.1193L493.612 96.4943C494.857 96.8239 495.817 97.233 495.817 98.267C495.817 99.4034 494.732 100.153 493.237 100.153C491.885 100.153 490.76 99.5511 490.658 98.2841H488.896C489.01 100.392 490.641 101.693 493.249 101.693C495.982 101.693 497.555 100.256 497.555 98.2841C497.555 96.1875 495.686 95.375 494.209 95.0114L493.072 94.7159C492.163 94.483 490.953 94.0568 490.959 92.9432C490.959 91.9545 491.862 91.2216 493.294 91.2216C494.629 91.2216 495.578 91.8466 495.703 92.9205Z" fill="black"/>
</g>
<rect width="168" height="64" transform="translate(607 64)" fill="#F9FCF9"/>
<path d="M642.727 87.6454L642.834 90.1041L641.123 93.3112L638.451 98.5494L637.916 102.932L639.84 109.133L644.223 111.591H650.851L657.051 106.888L659.831 99.5115L653.417 91.7077L651.599 87.3247L642.727 87.6454Z" fill="#ECEFF1"/>
<path d="M657.907 93.7388C656.196 91.2801 654.806 89.7835 654.058 86.6833C653.31 83.5832 654.272 84.4384 653.631 81.7659C653.31 80.3762 652.775 79.414 652.241 78.6657C651.599 77.9174 650.851 77.4898 650.424 77.3829C649.461 76.8484 647.216 75.9932 644.437 77.4898C641.551 78.9864 641.871 82.1935 642.406 88.7145C642.406 89.1421 642.299 89.6766 642.085 90.1042C641.658 91.0663 640.909 91.9215 640.268 92.6698C639.52 93.7388 638.771 94.8079 638.237 95.9838C636.954 98.4425 635.778 101.543 636.099 102.719C636.633 102.612 643.368 112.874 643.368 113.088C643.796 112.981 645.613 112.981 647.216 112.981C649.461 112.874 650.744 112.767 652.562 113.195C652.562 112.874 652.455 112.553 652.455 112.233C652.455 111.591 652.562 111.057 652.668 110.309C652.775 109.774 652.882 109.24 652.989 108.598C651.92 109.56 649.996 110.629 648.179 110.95C646.575 111.271 643.903 110.736 642.62 109.133C642.727 109.133 642.94 109.133 643.047 109.026C643.368 108.919 643.689 108.812 643.796 108.598C644.116 108.064 643.903 107.529 643.689 107.208C643.475 106.888 641.871 105.712 641.123 105.07C640.375 104.429 639.947 104.108 639.52 103.681L638.664 102.825C638.451 102.612 638.344 102.398 638.237 102.291C638.023 101.756 637.916 101.115 638.023 100.26C638.13 99.0839 638.557 98.1218 639.092 97.0528C639.306 96.6252 639.84 95.77 639.84 95.77C639.84 95.77 638.023 100.26 638.985 101.65C638.985 101.65 639.092 100.26 639.52 98.8701C639.84 97.908 640.375 96.5183 641.016 95.77C641.658 95.0217 643.261 92.2422 643.368 90.5318C643.368 89.7835 643.475 89.0352 643.475 88.5007C643.047 88.0731 650.53 87.0041 650.958 88.18C651.065 88.6076 652.562 92.456 653.417 94.4871C653.844 95.4493 654.379 96.3045 654.7 97.3735C655.02 98.5494 655.234 100.153 655.234 101.756C655.234 102.077 655.234 102.612 655.127 103.146C655.341 103.146 659.51 98.6563 654.593 94.9148C654.593 94.9148 657.586 96.3045 657.693 99.0839C657.8 101.329 656.838 103.146 656.624 103.467C656.731 103.467 658.869 104.429 658.976 104.429C659.403 104.429 660.258 104.108 660.258 104.108C660.365 103.788 660.686 102.932 660.686 102.612C661.434 100.153 659.617 96.1976 657.907 93.7388Z" fill="#263238"/>
<path d="M644.33 86.683C645.098 86.683 645.72 85.7258 645.72 84.545C645.72 83.3642 645.098 82.407 644.33 82.407C643.563 82.407 642.94 83.3642 642.94 84.545C642.94 85.7258 643.563 86.683 644.33 86.683Z" fill="#ECEFF1"/>
<path d="M649.141 86.897C650.144 86.897 650.958 85.7961 650.958 84.4382C650.958 83.0803 650.144 81.9795 649.141 81.9795C648.137 81.9795 647.323 83.0803 647.323 84.4382C647.323 85.7961 648.137 86.897 649.141 86.897Z" fill="#ECEFF1"/>
<path d="M645.107 84.6917C645.018 83.9888 644.614 83.4611 644.204 83.5129C643.794 83.5647 643.534 84.1765 643.622 84.8794C643.711 85.5823 644.116 86.1101 644.526 86.0583C644.936 86.0064 645.196 85.3946 645.107 84.6917Z" fill="#212121"/>
<path d="M649.034 86.256C649.624 86.256 650.103 85.6338 650.103 84.8663C650.103 84.0988 649.624 83.4766 649.034 83.4766C648.443 83.4766 647.965 84.0988 647.965 84.8663C647.965 85.6338 648.443 86.256 649.034 86.256Z" fill="#212121"/>
<path d="M663.252 108.385C662.824 108.171 662.076 107.85 661.434 106.888C661.114 106.353 661.221 104.857 660.686 104.215C660.365 103.788 659.938 104.002 659.831 104.002C658.869 104.215 656.624 105.712 655.127 104.002C654.913 103.788 654.593 103.467 654.058 103.467C653.524 103.467 653.31 103.681 653.096 104.108C652.882 104.536 652.882 104.857 652.882 105.926C652.882 106.781 652.882 107.743 652.775 108.491C652.562 110.309 652.241 111.378 652.241 112.447C652.241 113.623 652.562 114.371 652.989 114.692C653.31 115.012 653.844 115.226 655.02 115.226C656.196 115.226 656.945 114.799 657.693 114.05C658.227 113.516 658.655 113.302 660.152 112.233C661.327 111.485 663.145 110.523 663.465 110.202C663.679 109.988 664 109.881 664 109.24C664 108.705 663.572 108.491 663.252 108.385Z" fill="#FFC107"/>
<path d="M641.765 108.705C640.695 106.995 640.589 106.674 639.84 105.605C639.199 104.536 637.809 102.505 636.954 102.505C636.313 102.505 635.992 102.826 635.564 103.253C635.137 103.681 634.709 104.643 633.961 105.177C633.319 105.712 631.502 105.605 631.074 106.246C630.647 106.888 631.502 107.85 631.502 109.453C631.502 110.095 630.967 110.522 630.861 110.95C630.754 111.485 630.647 111.805 630.861 112.233C631.288 112.874 631.823 113.088 635.457 113.836C637.382 114.264 639.199 115.333 640.375 115.44C641.551 115.547 643.582 115.44 643.582 112.554C643.689 110.843 642.727 110.416 641.765 108.705Z" fill="#FFC107"/>
<path d="M643.796 89.356C643.154 88.9283 642.62 88.5007 642.62 87.8593C642.62 87.2179 643.047 87.0041 643.689 86.4696C643.796 86.3627 644.972 85.2937 646.147 85.2937C647.323 85.2937 648.713 86.042 649.248 86.2558C650.21 86.4696 651.172 86.6834 651.065 87.4317C650.958 88.5007 650.851 88.7145 649.782 89.2491C649.034 89.4629 647.644 90.6388 646.682 90.6388C646.254 90.6388 645.613 90.6388 645.185 90.5319C644.865 90.425 644.33 89.8905 643.796 89.356Z" fill="#FFC107"/>
<path d="M643.582 88.5001C643.796 88.7139 644.116 88.9277 644.437 89.0346C644.651 89.1415 644.972 89.2484 644.972 89.2484H645.934C646.468 89.2484 647.217 89.0346 647.965 88.607C648.713 88.2863 648.82 88.0724 649.355 87.8586C649.889 87.5379 650.424 87.2172 650.21 87.1103C649.996 87.0034 649.782 87.1103 649.034 87.5379C648.392 87.9655 647.858 88.1793 647.217 88.5001C646.896 88.607 646.468 88.8208 646.147 88.8208H645.185C644.865 88.8208 644.651 88.7139 644.33 88.607C644.116 88.5001 644.009 88.3932 643.903 88.3932C643.689 88.2862 643.261 87.8586 643.047 87.7517C643.047 87.7517 642.834 87.7517 642.94 87.8586L643.582 88.5001Z" fill="#634703"/>
<path d="M646.789 86.1483C646.896 86.3621 647.11 86.3621 647.216 86.469C647.323 86.5759 647.43 86.5759 647.43 86.5759C647.537 86.469 647.43 86.2552 647.323 86.2552C647.323 86.0414 646.789 86.0414 646.789 86.1483Z" fill="#634703"/>
<path d="M645.078 86.3622C645.078 86.4691 645.292 86.576 645.292 86.4691C645.399 86.3622 645.506 86.2553 645.613 86.2553C645.827 86.1484 645.72 86.0415 645.399 86.0415C645.185 86.1484 645.185 86.2553 645.078 86.3622Z" fill="#634703"/>
<path d="M655.448 105.284V105.605C655.662 106.032 656.196 106.139 656.624 106.139C657.265 106.139 657.907 105.712 658.227 105.284C658.227 105.177 658.334 105.07 658.441 104.963C658.655 104.643 658.762 104.429 658.869 104.322C658.869 104.322 658.762 104.215 658.762 104.108C658.655 103.894 658.334 103.681 657.907 103.574C657.586 103.467 657.051 103.36 656.838 103.36C655.876 103.253 655.341 103.574 655.02 103.894C655.02 103.894 655.127 103.894 655.127 104.001C655.341 104.215 655.448 104.429 655.448 104.75C655.555 104.963 655.448 105.07 655.448 105.284Z" fill="#455A64"/>
<path d="M684.278 101.5H691.307V99.9886H686.034V89.8636H684.278V101.5ZM693.173 101.5H694.872V92.7727H693.173V101.5ZM694.031 91.4261C694.616 91.4261 695.105 90.9716 695.105 90.4148C695.105 89.858 694.616 89.3977 694.031 89.3977C693.44 89.3977 692.957 89.858 692.957 90.4148C692.957 90.9716 693.44 91.4261 694.031 91.4261ZM698.857 96.3182C698.857 94.9261 699.709 94.1307 700.891 94.1307C702.044 94.1307 702.743 94.8864 702.743 96.1534V101.5H704.442V95.9489C704.442 93.7898 703.254 92.6591 701.47 92.6591C700.158 92.6591 699.3 93.267 698.896 94.1932H698.788V92.7727H697.158V101.5H698.857V96.3182ZM712.249 97.8807C712.254 99.3636 711.152 100.068 710.197 100.068C709.146 100.068 708.419 99.3068 708.419 98.1193V92.7727H706.72V98.3239C706.72 100.489 707.908 101.614 709.584 101.614C710.896 101.614 711.788 100.92 712.192 99.9886H712.283V101.5H713.953V92.7727H712.249V97.8807ZM717.577 92.7727H715.713L718.395 97.1364L715.679 101.5H717.543L719.503 98.2386L721.469 101.5H723.327L720.582 97.1364L723.304 92.7727H721.446L719.503 96.1705L717.577 92.7727Z" fill="black"/>
</g>
<defs>
<filter id="filter0_dddd" x="0" y="0" width="895" height="272" filterUnits="userSpaceOnUse" color-interpolation-filters="sRGB">
<feFlood flood-opacity="0" result="BackgroundImageFix"/>
<feColorMatrix in="SourceAlpha" type="matrix" values="0 0 0 0 0 0 0 0 0 0 0 0 0 0 0 0 0 0 127 0" result="hardAlpha"/>
<feOffset dy="1.75"/>
<feGaussianBlur stdDeviation="2.3125"/>
<feColorMatrix type="matrix" values="0 0 0 0 0 0 0 0 0 0 0 0 0 0 0 0 0 0 0.0195 0"/>
<feBlend mode="normal" in2="BackgroundImageFix" result="effect1_dropShadow"/>
<feColorMatrix in="SourceAlpha" type="matrix" values="0 0 0 0 0 0 0 0 0 0 0 0 0 0 0 0 0 0 127 0" result="hardAlpha"/>
<feOffset dy="8"/>
<feGaussianBlur stdDeviation="6.5"/>
<feColorMatrix type="matrix" values="0 0 0 0 0 0 0 0 0 0 0 0 0 0 0 0 0 0 0.03 0"/>
<feBlend mode="normal" in2="effect1_dropShadow" result="effect2_dropShadow"/>
<feColorMatrix in="SourceAlpha" type="matrix" values="0 0 0 0 0 0 0 0 0 0 0 0 0 0 0 0 0 0 127 0" result="hardAlpha"/>
<feOffset dy="20.25"/>
<feGaussianBlur stdDeviation="17.4375"/>
<feColorMatrix type="matrix" values="0 0 0 0 0 0 0 0 0 0 0 0 0 0 0 0 0 0 0.0405 0"/>
<feBlend mode="normal" in2="effect2_dropShadow" result="effect3_dropShadow"/>
<feColorMatrix in="SourceAlpha" type="matrix" values="0 0 0 0 0 0 0 0 0 0 0 0 0 0 0 0 0 0 127 0" result="hardAlpha"/>
<feOffset dy="40"/>
<feGaussianBlur stdDeviation="40"/>
<feColorMatrix type="matrix" values="0 0 0 0 0 0 0 0 0 0 0 0 0 0 0 0 0 0 0.06 0"/>
<feBlend mode="normal" in2="effect3_dropShadow" result="effect4_dropShadow"/>
<feBlend mode="normal" in="SourceGraphic" in2="effect4_dropShadow" result="shape"/>
</filter>
<filter id="filter1_i" x="120" y="64" width="204" height="64" filterUnits="userSpaceOnUse" color-interpolation-filters="sRGB">
<feFlood flood-opacity="0" result="BackgroundImageFix"/>
<feBlend mode="normal" in="SourceGraphic" in2="BackgroundImageFix" result="shape"/>
<feColorMatrix in="SourceAlpha" type="matrix" values="0 0 0 0 0 0 0 0 0 0 0 0 0 0 0 0 0 0 127 0" result="hardAlpha"/>
<feOffset dx="-1"/>
<feComposite in2="hardAlpha" operator="arithmetic" k2="-1" k3="1"/>
<feColorMatrix type="matrix" values="0 0 0 0 0 0 0 0 0 0 0 0 0 0 0 0 0 0 0.12 0"/>
<feBlend mode="normal" in2="shape" result="effect1_innerShadow"/>
</filter>
<filter id="filter2_i" x="363" y="64" width="204" height="64" filterUnits="userSpaceOnUse" color-interpolation-filters="sRGB">
<feFlood flood-opacity="0" result="BackgroundImageFix"/>
<feBlend mode="normal" in="SourceGraphic" in2="BackgroundImageFix" result="shape"/>
<feColorMatrix in="SourceAlpha" type="matrix" values="0 0 0 0 0 0 0 0 0 0 0 0 0 0 0 0 0 0 127 0" result="hardAlpha"/>
<feOffset dx="-1"/>
<feComposite in2="hardAlpha" operator="arithmetic" k2="-1" k3="1"/>
<feColorMatrix type="matrix" values="0 0 0 0 0 0 0 0 0 0 0 0 0 0 0 0 0 0 0.12 0"/>
<feBlend mode="normal" in2="shape" result="effect1_innerShadow"/>
</filter>
</defs>
</svg>
