<svg width="66" height="66" viewBox="0 0 66 66" fill="none" xmlns="http://www.w3.org/2000/svg">
<path opacity="0.6" d="M12.6033 47.0938C9.77075 44.2745 8.25 41.1124 8.25 35.9865C8.25 26.9667 15.0067 18.8823 24.8325 14.8853L27.2882 18.4365C18.117 23.0856 16.324 29.1186 15.609 32.9223C17.0857 32.2059 19.019 31.9559 20.9137 32.1209C25.8747 32.5512 29.7852 36.3679 29.7852 41.1124C29.7852 43.5046 28.7712 45.7988 26.9662 47.4903C25.1611 49.1819 22.713 50.1322 20.1602 50.1322C18.7486 50.1206 17.3534 49.8461 16.056 49.3244C14.7587 48.8028 13.585 48.0445 12.6033 47.0938ZM40.1032 47.0938C37.2707 44.2745 35.75 41.1124 35.75 35.9865C35.75 26.9667 42.5067 18.8823 52.3325 14.8853L54.7882 18.4365C45.617 23.0856 43.824 29.1186 43.109 32.9223C44.5857 32.2059 46.519 31.9559 48.4137 32.1209C53.3747 32.5512 57.2852 36.3679 57.2852 41.1124C57.2852 43.5046 56.2712 45.7988 54.4661 47.4903C52.6611 49.1819 50.213 50.1322 47.6602 50.1322C46.2486 50.1206 44.8534 49.8461 43.556 49.3244C42.2587 48.8028 41.085 48.0445 40.1032 47.0938Z" fill="#7B68EE"/>
</svg>
