<svg width="72" height="75" viewBox="0 0 72 75" fill="none" xmlns="http://www.w3.org/2000/svg">
<mask id="mask0" style="mask-type:alpha" maskUnits="userSpaceOnUse" x="2" y="0" width="67" height="75">
<path d="M39.1062 24.9362C39.1062 23.3829 37.847 22.1237 36.2937 22.1237C34.7404 22.1237 33.4812 23.3829 33.4812 24.9362H39.1062ZM36.2937 42.6682H33.4812C33.4812 43.4141 33.7775 44.1294 34.3049 44.6568L36.2937 42.6682ZM46.8246 57.1781C47.9229 58.2765 49.7037 58.2766 50.8021 57.1783C51.9005 56.08 51.9006 54.2993 50.8024 53.2008L46.8246 57.1781ZM12.1137 15.3936C13.2121 14.2952 13.2121 12.5145 12.1137 11.4161C11.0154 10.3178 9.23461 10.3178 8.13626 11.4161L12.1137 15.3936ZM3.63626 15.9161C2.53791 17.0145 2.53791 18.7952 3.63626 19.8936C4.73461 20.9919 6.51539 20.9919 7.61374 19.8936L3.63626 15.9161ZM44.7045 6.50001C46.2578 6.50001 47.517 5.24081 47.517 3.68751C47.517 2.13421 46.2578 0.875007 44.7045 0.875006V6.50001ZM28.1249 0.875C26.5716 0.875 25.3124 2.1342 25.3124 3.6875C25.3124 5.2408 26.5716 6.5 28.1249 6.5L28.1249 0.875ZM36.2812 74.7173C54.1447 74.7173 68.625 60.237 68.625 42.3736H63C63 57.1304 51.0381 69.0923 36.2812 69.0923V74.7173ZM68.625 42.3736C68.625 24.5102 54.1447 10.0298 36.2812 10.0298V15.6548C51.0381 15.6548 63 27.6168 63 42.3736H68.625ZM36.2812 10.0298C18.4178 10.0298 3.9375 24.5102 3.9375 42.3736H9.5625C9.5625 27.6168 21.5244 15.6548 36.2812 15.6548V10.0298ZM3.9375 42.3736C3.9375 60.237 18.4178 74.7173 36.2812 74.7173V69.0923C21.5244 69.0923 9.5625 57.1304 9.5625 42.3736H3.9375ZM33.4812 24.9362V42.6682H39.1062V24.9362H33.4812ZM34.3049 44.6568L46.8246 57.1781L50.8024 53.2008L38.2826 40.6796L34.3049 44.6568ZM8.13626 11.4161L3.63626 15.9161L7.61374 19.8936L12.1137 15.3936L8.13626 11.4161ZM44.7045 0.875006L28.1249 0.875L28.1249 6.5L44.7045 6.50001V0.875006Z" fill="#7B68EE"/>
</mask>
<g mask="url(#mask0)">
<g filter="url(#filter0_f)">
<circle cx="46" cy="34" r="44" fill="#FFC107"/>
</g>
<g filter="url(#filter1_f)">
<circle cx="17" cy="54" r="34" fill="#7B68EE"/>
</g>
</g>
<defs>
<filter id="filter0_f" x="-42" y="-54" width="176" height="176" filterUnits="userSpaceOnUse" color-interpolation-filters="sRGB">
<feFlood flood-opacity="0" result="BackgroundImageFix"/>
<feBlend mode="normal" in="SourceGraphic" in2="BackgroundImageFix" result="shape"/>
<feGaussianBlur stdDeviation="22" result="effect1_foregroundBlur"/>
</filter>
<filter id="filter1_f" x="-57" y="-20" width="148" height="148" filterUnits="userSpaceOnUse" color-interpolation-filters="sRGB">
<feFlood flood-opacity="0" result="BackgroundImageFix"/>
<feBlend mode="normal" in="SourceGraphic" in2="BackgroundImageFix" result="shape"/>
<feGaussianBlur stdDeviation="20" result="effect1_foregroundBlur"/>
</filter>
</defs>
</svg>
