<svg width="72" height="75" viewBox="0 0 72 75" fill="none" xmlns="http://www.w3.org/2000/svg">
<mask id="mask0" style="mask-type:alpha" maskUnits="userSpaceOnUse" x="2" y="0" width="67" height="75">
<path d="M12.1137 15.3936C13.2121 14.2952 13.2121 12.5145 12.1137 11.4161C11.0154 10.3178 9.23461 10.3178 8.13626 11.4161L12.1137 15.3936ZM3.63626 15.9161C2.53791 17.0145 2.53791 18.7952 3.63626 19.8936C4.73461 20.9919 6.51539 20.9919 7.61374 19.8936L3.63626 15.9161ZM44.7045 6.50001C46.2578 6.50001 47.517 5.24081 47.517 3.68751C47.517 2.13421 46.2578 0.875007 44.7045 0.875006V6.50001ZM28.1249 0.875C26.5716 0.875 25.3124 2.1342 25.3124 3.6875C25.3124 5.2408 26.5716 6.5 28.1249 6.5L28.1249 0.875ZM8.13626 11.4161L3.63626 15.9161L7.61374 19.8936L12.1137 15.3936L8.13626 11.4161ZM44.7045 0.875006L28.1249 0.875L28.1249 6.5L44.7045 6.50001V0.875006ZM36.2812 74.7173C54.1447 74.7173 68.625 60.237 68.625 42.3736H63C63 57.1304 51.0381 69.0923 36.2812 69.0923V74.7173ZM68.625 42.3736C68.625 24.5102 54.1447 10.0298 36.2812 10.0298V15.6548C51.0381 15.6548 63 27.6168 63 42.3736H68.625ZM36.2812 10.0298C18.4178 10.0298 3.9375 24.5102 3.9375 42.3736H9.5625C9.5625 27.6168 21.5244 15.6548 36.2812 15.6548V10.0298ZM3.9375 42.3736C3.9375 60.237 18.4178 74.7173 36.2812 74.7173V69.0923C21.5244 69.0923 9.5625 57.1304 9.5625 42.3736H3.9375Z" fill="#7B68EE"/>
<path d="M30.5762 37.851C29.9834 37.8512 29.4113 38.069 28.9686 38.4632C28.5258 38.8574 28.2432 39.4004 28.1744 39.9892L28.1575 40.2698V50.8349C28.1417 53.0405 28.9912 55.1643 30.5237 56.7505C32.0562 58.3368 34.1496 59.2589 36.3544 59.3191C38.5592 59.3792 40.6997 58.5726 42.3164 57.0723C43.9331 55.572 44.8972 53.4976 45.0017 51.2945L45.0138 50.8349V40.2698C45.0136 39.677 44.7958 39.1049 44.4016 38.6621C44.0074 38.2193 43.4644 37.9367 42.8756 37.868L42.595 37.851H30.5762ZM46.7819 37.851C47.1338 38.4583 47.3485 39.1353 47.4107 39.8344L47.4325 40.2698V50.8349L47.4204 51.3428C47.3478 52.8981 46.9488 54.3663 46.2884 55.6845C47.3069 56.1122 48.4132 56.2895 49.5143 56.2014C50.6155 56.1133 51.6794 55.7624 52.6169 55.1781C53.5545 54.5938 54.3382 53.7933 54.9024 52.8435C55.4666 51.8938 55.7948 50.8226 55.8594 49.7198L55.8715 49.3135V40.2698C55.8714 39.6774 55.6539 39.1056 55.2603 38.6628C54.8666 38.2201 54.3241 37.9373 53.7358 37.868L53.4528 37.851H46.7843H46.7819ZM26.387 37.851H19.6532C19.0604 37.8512 18.4883 38.069 18.0455 38.4632C17.6027 38.8574 17.3201 39.4004 17.2513 39.9892L17.2344 40.2698V49.3159C17.2343 50.4598 17.5183 51.5857 18.0608 52.5927C18.6033 53.5997 19.3874 54.4563 20.3427 55.0854C21.2979 55.7146 22.3945 56.0967 23.5339 56.1975C24.6733 56.2982 25.8199 56.1145 26.8707 55.6627C26.2207 54.3575 25.8422 52.934 25.7581 51.4783L25.7387 50.8349V40.2698L25.7533 39.9094C25.8061 39.1842 26.0227 38.4804 26.387 37.851ZM36.5892 25.6968C35.1603 25.6968 33.7899 26.2645 32.7795 27.2749C31.7691 28.2853 31.2015 29.6557 31.2015 31.0846C31.2015 32.5135 31.7691 33.8839 32.7795 34.8943C33.7899 35.9047 35.1603 36.4724 36.5892 36.4724C38.0182 36.4724 39.3886 35.9047 40.399 34.8943C41.4094 33.8839 41.977 32.5135 41.977 31.0846C41.977 29.6557 41.4094 28.2853 40.399 27.2749C39.3886 26.2645 38.0182 25.6968 36.5892 25.6968ZM24.5269 27.2158C23.2994 27.2158 22.1222 27.7034 21.2543 28.5714C20.3863 29.4394 19.8987 30.6166 19.8987 31.8441C19.8987 33.0716 20.3863 34.2488 21.2543 35.1168C22.1222 35.9847 23.2994 36.4724 24.5269 36.4724C25.7544 36.4724 26.9317 35.9847 27.7996 35.1168C28.6676 34.2488 29.1552 33.0716 29.1552 31.8441C29.1552 30.6166 28.6676 29.4394 27.7996 28.5714C26.9317 27.7034 25.7544 27.2158 24.5269 27.2158ZM48.6153 27.2158C47.3878 27.2158 46.2106 27.7034 45.3426 28.5714C44.4746 29.4394 43.987 30.6166 43.987 31.8441C43.987 33.0716 44.4746 34.2488 45.3426 35.1168C46.2106 35.9847 47.3878 36.4724 48.6153 36.4724C49.8428 36.4724 51.02 35.9847 51.888 35.1168C52.7559 34.2488 53.2435 33.0716 53.2435 31.8441C53.2435 30.6166 52.7559 29.4394 51.888 28.5714C51.02 27.7034 49.8428 27.2158 48.6153 27.2158Z" fill="#7B68EE"/>
</mask>
<g mask="url(#mask0)">
<g filter="url(#filter0_f)">
<circle cx="46" cy="33" r="44" fill="#FFC107"/>
</g>
<g filter="url(#filter1_f)">
<circle cx="17" cy="53" r="34" fill="#7B68EE"/>
</g>
</g>
<defs>
<filter id="filter0_f" x="-42" y="-55" width="176" height="176" filterUnits="userSpaceOnUse" color-interpolation-filters="sRGB">
<feFlood flood-opacity="0" result="BackgroundImageFix"/>
<feBlend mode="normal" in="SourceGraphic" in2="BackgroundImageFix" result="shape"/>
<feGaussianBlur stdDeviation="22" result="effect1_foregroundBlur"/>
</filter>
<filter id="filter1_f" x="-57" y="-21" width="148" height="148" filterUnits="userSpaceOnUse" color-interpolation-filters="sRGB">
<feFlood flood-opacity="0" result="BackgroundImageFix"/>
<feBlend mode="normal" in="SourceGraphic" in2="BackgroundImageFix" result="shape"/>
<feGaussianBlur stdDeviation="20" result="effect1_foregroundBlur"/>
</filter>
</defs>
</svg>
