<svg width="72" height="75" viewBox="0 0 72 75" fill="none" xmlns="http://www.w3.org/2000/svg">
<mask id="mask0" style="mask-type:alpha" maskUnits="userSpaceOnUse" x="2" y="0" width="67" height="75">
<path d="M17.8173 37.1384C17.934 36.7947 18.1487 36.4928 18.4351 36.2698C18.7214 36.0468 19.0667 35.9125 19.4285 35.8836L30.0109 35.0427L34.5902 24.9058C34.7361 24.5793 34.9733 24.302 35.2732 24.1074C35.5732 23.9127 35.9231 23.809 36.2807 23.8088C36.6382 23.8086 36.9882 23.9119 37.2884 24.1062C37.5886 24.3006 37.8261 24.5776 37.9723 24.9039L42.5516 35.0427L53.134 35.8836C53.4896 35.9117 53.8295 36.0417 54.1131 36.258C54.3967 36.4743 54.612 36.7677 54.7332 37.1032C54.8544 37.4386 54.8764 37.8019 54.7966 38.1495C54.7167 38.4971 54.5384 38.8144 54.283 39.0633L46.4627 46.6869L49.2285 58.6633C49.3125 59.0258 49.2856 59.4052 49.1512 59.7522C49.0169 60.0993 48.7814 60.3979 48.4752 60.6094C48.1691 60.821 47.8064 60.9356 47.4343 60.9384C47.0622 60.9412 46.6978 60.8322 46.3885 60.6253L36.2813 53.8872L26.1741 60.6253C25.8579 60.8353 25.485 60.9433 25.1056 60.935C24.7261 60.9267 24.3583 60.8024 24.0517 60.5788C23.745 60.3552 23.5141 60.0431 23.3901 59.6844C23.2662 59.3256 23.255 58.9376 23.3582 58.5723L26.7532 46.6924L18.3333 39.1153C17.782 38.6178 17.5797 37.8419 17.8173 37.1384Z" fill="#7B68EE"/>
<path d="M12.1137 15.3936C13.2121 14.2952 13.2121 12.5145 12.1137 11.4161C11.0154 10.3178 9.23461 10.3178 8.13626 11.4161L12.1137 15.3936ZM3.63626 15.9161C2.53791 17.0145 2.53791 18.7952 3.63626 19.8936C4.73461 20.9919 6.51539 20.9919 7.61374 19.8936L3.63626 15.9161ZM44.7045 6.50001C46.2578 6.50001 47.517 5.24081 47.517 3.68751C47.517 2.13421 46.2578 0.875007 44.7045 0.875006V6.50001ZM28.1249 0.875C26.5716 0.875 25.3124 2.1342 25.3124 3.6875C25.3124 5.2408 26.5716 6.5 28.1249 6.5L28.1249 0.875ZM8.13626 11.4161L3.63626 15.9161L7.61374 19.8936L12.1137 15.3936L8.13626 11.4161ZM44.7045 0.875006L28.1249 0.875L28.1249 6.5L44.7045 6.50001V0.875006ZM36.2812 74.7173C54.1447 74.7173 68.625 60.237 68.625 42.3736H63C63 57.1304 51.0381 69.0923 36.2812 69.0923V74.7173ZM68.625 42.3736C68.625 24.5102 54.1447 10.0298 36.2812 10.0298V15.6548C51.0381 15.6548 63 27.6168 63 42.3736H68.625ZM36.2812 10.0298C18.4178 10.0298 3.9375 24.5102 3.9375 42.3736H9.5625C9.5625 27.6168 21.5244 15.6548 36.2812 15.6548V10.0298ZM3.9375 42.3736C3.9375 60.237 18.4178 74.7173 36.2812 74.7173V69.0923C21.5244 69.0923 9.5625 57.1304 9.5625 42.3736H3.9375Z" fill="#7B68EE"/>
</mask>
<g mask="url(#mask0)">
<g filter="url(#filter0_f)">
<circle cx="46" cy="33" r="44" fill="#FFC107"/>
</g>
<g filter="url(#filter1_f)">
<circle cx="17" cy="53" r="34" fill="#7B68EE"/>
</g>
</g>
<defs>
<filter id="filter0_f" x="-42" y="-55" width="176" height="176" filterUnits="userSpaceOnUse" color-interpolation-filters="sRGB">
<feFlood flood-opacity="0" result="BackgroundImageFix"/>
<feBlend mode="normal" in="SourceGraphic" in2="BackgroundImageFix" result="shape"/>
<feGaussianBlur stdDeviation="22" result="effect1_foregroundBlur"/>
</filter>
<filter id="filter1_f" x="-57" y="-21" width="148" height="148" filterUnits="userSpaceOnUse" color-interpolation-filters="sRGB">
<feFlood flood-opacity="0" result="BackgroundImageFix"/>
<feBlend mode="normal" in="SourceGraphic" in2="BackgroundImageFix" result="shape"/>
<feGaussianBlur stdDeviation="20" result="effect1_foregroundBlur"/>
</filter>
</defs>
</svg>
