<svg width="127" height="40" viewBox="0 0 127 40" fill="none" xmlns="http://www.w3.org/2000/svg">
<path d="M0 5.67503L16.3446 3.4576L16.3516 19.1641L0.0148416 19.2567L0 5.67519V5.67503ZM16.3368 20.9736L16.3492 36.6937L0.0126545 34.456L0.0117171 20.8682L16.3366 20.9736H16.3368ZM18.318 3.16733L39.9893 0.0163574V18.9642L18.318 19.1354V3.16749V3.16733ZM39.9943 21.1214L39.9892 39.9838L18.3179 36.9367L18.2876 21.0861L39.9943 21.1214Z" fill="#00ADEF"/>
<path d="M59.554 25.5164H61.3267L63.7756 16.8004H63.8665L66.3154 25.5164H68.0824L71.3154 13.88H69.4631L67.2017 22.897H67.0938L64.7358 13.88H62.9063L60.5483 22.8914H60.4404L58.1733 13.88H56.3267L59.554 25.5164ZM72.7799 25.5164H74.4787V16.7891H72.7799V25.5164ZM73.6378 15.4425C74.223 15.4425 74.7117 14.9879 74.7117 14.4311C74.7117 13.8743 74.223 13.4141 73.6378 13.4141C73.0469 13.4141 72.564 13.8743 72.564 14.4311C72.564 14.9879 73.0469 15.4425 73.6378 15.4425ZM78.4631 20.3345C78.4631 18.9425 79.3154 18.147 80.4972 18.147C81.6506 18.147 82.3495 18.9027 82.3495 20.1698V25.5164H84.0483V19.9652C84.0483 17.8061 82.8608 16.6754 81.0767 16.6754C79.7642 16.6754 78.9063 17.2834 78.5029 18.2095H78.3949V16.7891H76.7642V25.5164H78.4631V20.3345ZM89.5938 25.6868C91.1847 25.6868 91.8097 24.7152 92.1165 24.1584H92.2586V25.5164H93.9176V13.88H92.2188V18.2039H92.1165C91.8097 17.6641 91.2301 16.6754 89.6051 16.6754C87.4972 16.6754 85.9461 18.3402 85.9461 21.1698C85.9461 23.9936 87.4745 25.6868 89.5938 25.6868ZM89.9688 24.2379C88.4517 24.2379 87.662 22.9027 87.662 21.1527C87.662 19.4198 88.4347 18.1186 89.9688 18.1186C91.4517 18.1186 92.2472 19.3289 92.2472 21.1527C92.2472 22.9879 91.4347 24.2379 89.9688 24.2379ZM100.018 25.6925C102.479 25.6925 104.087 23.8914 104.087 21.1925C104.087 18.4766 102.479 16.6754 100.018 16.6754C97.5583 16.6754 95.9503 18.4766 95.9503 21.1925C95.9503 23.8914 97.5583 25.6925 100.018 25.6925ZM100.024 24.2664C98.4162 24.2664 97.6662 22.8629 97.6662 21.1868C97.6662 19.5164 98.4162 18.0959 100.024 18.0959C101.621 18.0959 102.371 19.5164 102.371 21.1868C102.371 22.8629 101.621 24.2664 100.024 24.2664ZM107.609 25.5164H109.337L111.109 19.2152H111.24L113.013 25.5164H114.746L117.308 16.7891H115.553L113.854 23.1698H113.768L112.064 16.7891H110.308L108.592 23.1982H108.507L106.797 16.7891H105.041L107.609 25.5164ZM125.46 18.9198C125.108 17.5618 124.045 16.6754 122.159 16.6754C120.188 16.6754 118.79 17.7152 118.79 19.2607C118.79 20.4993 119.54 21.3232 121.176 21.6868L122.653 22.0107C123.494 22.1982 123.886 22.5732 123.886 23.1186C123.886 23.7948 123.165 24.3232 122.051 24.3232C121.034 24.3232 120.381 23.8857 120.176 23.0277L118.534 23.2777C118.818 24.8232 120.102 25.6925 122.063 25.6925C124.17 25.6925 125.631 24.5732 125.631 22.9936C125.631 21.7607 124.847 20.9993 123.244 20.63L121.858 20.3118C120.898 20.0845 120.483 19.7607 120.489 19.1698C120.483 18.4993 121.21 18.022 122.176 18.022C123.233 18.022 123.722 18.6073 123.92 19.1925L125.46 18.9198Z" fill="black"/>
</svg>
